<?xml version="1.0" encoding="UTF-8"?>
<!DOCTYPE svg PUBLIC "-//W3C//DTD SVG 1.1//EN" "http://www.w3.org/Graphics/SVG/1.1/DTD/svg11.dtd">
<!-- Creator: CorelDRAW 2018 (64-Bit) -->
<svg xmlns="http://www.w3.org/2000/svg" xml:space="preserve" width="71.638mm" height="71.638mm" version="1.1" style="shape-rendering:geometricPrecision; text-rendering:geometricPrecision; image-rendering:optimizeQuality; fill-rule:evenodd; clip-rule:evenodd" viewBox="0 0 2199.12 2199.12" xmlns:xlink="http://www.w3.org/1999/xlink">
 <defs>
  <style type="text/css">
   <![CDATA[
    .fil1 {fill:#FEFEFE}
    .fil6 {fill:#80DBFF}
    .fil3 {fill:#AB3388}
    .fil5 {fill:#B5EFFF}
    .fil0 {fill:#E06E37}
    .fil4 {fill:#FEE500}
    .fil2 {fill:#D25922;fill-rule:nonzero}
   ]]>
  </style>
 </defs>
 <g id="Слой_x0020_1">
  <metadata id="CorelCorpID_0Corel-Layer"/>
  <circle class="fil0" cx="1099.56" cy="1099.56" r="1099.56"/>
  <path class="fil1" d="M419.49 611.94c-4.22,-4.07 -6.9,-9.76 -7.01,-16.08l-2.56 -138.23c-0.23,-12.66 9.83,-23.1 22.49,-23.34l138.23 -2.56c12.66,-0.25 23.12,9.83 23.34,22.49 0.23,12.66 -9.84,23.11 -22.49,23.34l-115.3 2.14 2.14 115.3c0.24,12.66 -9.83,23.11 -22.49,23.34 -6.34,0.14 -12.12,-2.33 -16.34,-6.4z"/>
  <path class="fil1" d="M1779.63 635.22c4.22,-4.07 6.9,-9.76 7.01,-16.08l2.56 -138.23c0.23,-12.66 -9.83,-23.11 -22.49,-23.34l-138.23 -2.56c-12.66,-0.25 -23.12,9.83 -23.34,22.49 -0.23,12.66 9.84,23.11 22.49,23.34l115.3 2.14 -2.14 115.3c-0.24,12.66 9.83,23.1 22.49,23.34 6.34,0.14 12.12,-2.33 16.34,-6.4z"/>
  <polygon class="fil2" points="1094.58,1619.89 694.22,1388.74 1094.57,1157.6 1494.92,1388.75 "/>
  <polygon class="fil3" points="700.82,1014.49 1094.57,1232.01 1488.33,1014.49 1488.33,527.25 700.82,527.25 " data-original="#FF475A" data-old_color="#ff475a"/>
  <polygon class="fil4" points="1094.57,527.25 700.82,527.25 700.82,1014.49 1094.57,1232.01 " data-original="#FFCE00" data-old_color="#ffce00"/>
  <polygon class="fil5" points="1094.57,744.77 700.82,527.25 1094.57,309.73 1488.33,527.25 " data-original="#B5EFFF"/>
  <polygon class="fil6" points="1094.57,744.77 1488.33,527.25 1094.57,309.73 " data-original="#80DBFF"/>
  <polygon class="fil3" points="1246.42,1238.81 1517.81,1388.73 1789.2,1238.81 1789.2,902.98 1246.42,902.98 " data-original="#FF475A" data-old_color="#ff475a"/>
  <polygon class="fil4" points="1517.81,902.98 1246.42,902.98 1246.42,1238.81 1517.81,1388.73 " data-original="#FFCE00" data-old_color="#ffce00"/>
  <polygon class="fil5" points="1517.81,1052.9 1246.42,902.98 1517.81,753.06 1789.2,902.98 " data-original="#B5EFFF"/>
  <polygon class="fil6" points="1517.81,1052.9 1789.2,902.98 1517.81,753.06 " data-original="#80DBFF"/>
  <polygon class="fil2" points="1517.81,1775.65 1249.5,1620.73 1517.81,1465.83 1786.12,1620.74 "/>
  <polygon class="fil3" points="409.92,1242.4 681.31,1392.32 952.69,1242.4 952.69,906.58 409.92,906.58 " data-original="#FF475A" data-old_color="#ff475a"/>
  <polygon class="fil4" points="681.31,906.58 409.92,906.58 409.92,1242.4 681.31,1392.32 " data-original="#FFCE00" data-old_color="#ffce00"/>
  <polygon class="fil5" points="681.31,1056.5 409.92,906.58 681.31,756.65 952.69,906.58 " data-original="#B5EFFF"/>
  <polygon class="fil6" points="681.31,1056.5 952.69,906.58 681.31,756.65 " data-original="#80DBFF"/>
  <polygon class="fil2" points="681.31,1779.24 412.99,1624.32 681.3,1469.42 949.62,1624.33 "/>
  <polygon class="fil2" points="1094.58,2010.08 841.99,1864.24 1094.57,1718.42 1347.16,1864.25 "/>
  <polygon class="fil3" points="839.09,1605.28 1094.57,1746.42 1350.05,1605.28 1350.05,1289.14 839.09,1289.14 " data-original="#FF475A" data-old_color="#ff475a"/>
  <polygon class="fil4" points="1094.57,1289.14 839.09,1289.14 839.09,1605.28 1094.57,1746.42 " data-original="#FFCE00" data-old_color="#ffce00"/>
  <polygon class="fil5" points="1094.57,1430.28 839.09,1289.14 1094.57,1148.01 1350.05,1289.14 " data-original="#B5EFFF"/>
  <polygon class="fil6" points="1094.57,1430.28 1350.05,1289.14 1094.57,1148.01 " data-original="#80DBFF"/>
  <path class="fil1" d="M419.49 1514.99c-4.22,4.07 -6.9,9.76 -7.01,16.08l-2.56 138.23c-0.23,12.66 9.83,23.11 22.49,23.34l138.23 2.56c12.66,0.25 23.12,-9.83 23.34,-22.49 0.23,-12.66 -9.84,-23.1 -22.49,-23.34l-115.3 -2.14 2.14 -115.3c0.24,-12.66 -9.83,-23.1 -22.49,-23.34 -6.34,-0.14 -12.12,2.33 -16.34,6.4z"/>
  <path class="fil1" d="M1779.63 1488.11c4.22,4.07 6.9,9.76 7.01,16.08l2.56 138.23c0.23,12.66 -9.83,23.11 -22.49,23.34l-138.23 2.56c-12.66,0.25 -23.12,-9.83 -23.34,-22.49 -0.23,-12.66 9.84,-23.11 22.49,-23.34l115.3 -2.14 -2.14 -115.3c-0.24,-12.66 9.83,-23.1 22.49,-23.34 6.34,-0.13 12.12,2.33 16.34,6.4z"/>
 </g>
</svg>