<?xml version="1.0" encoding="UTF-8"?>
<!DOCTYPE svg PUBLIC "-//W3C//DTD SVG 1.1//EN" "http://www.w3.org/Graphics/SVG/1.1/DTD/svg11.dtd">
<!-- Creator: CorelDRAW 2018 (64-Bit) -->
<svg xmlns="http://www.w3.org/2000/svg" xml:space="preserve" width="71.6381mm" height="71.6381mm" version="1.1" style="shape-rendering:geometricPrecision; text-rendering:geometricPrecision; image-rendering:optimizeQuality; fill-rule:evenodd; clip-rule:evenodd" viewBox="0 0 991.86 991.86" xmlns:xlink="http://www.w3.org/1999/xlink">
 <defs>
  <style type="text/css">
   <![CDATA[
    .fil8 {fill:#FEFEFE}
    .fil9 {fill:#646567}
    .fil3 {fill:#60BB51}
    .fil6 {fill:#2970FF}
    .fil5 {fill:#AB33A3}
    .fil4 {fill:#AB33A3}
    .fil1 {fill:#D0941F}
    .fil2 {fill:#EDAC1A}
    .fil0 {fill:#F8D500}
    .fil7 {fill:white}
   ]]>
  </style>
 </defs>
 <g id="Слой_x0020_1">
  <metadata id="CorelCorpID_0Corel-Layer"/>
  <circle class="fil0" cx="495.93" cy="495.93" r="495.93"/>
  <polygon class="fil1" points="702.5,505.71 800.32,505.72 816.7,522.1 816.7,628.83 800.32,645.21 804.43,645.21 820.82,661.59 820.82,768.33 804.43,784.71 487.08,784.71 458.79,810.27 402.22,810.27 373.93,784.71 308.71,784.71 292.33,768.33 292.33,661.59 308.71,645.21 292.33,628.83 292.33,522.1 308.71,505.72 187.42,505.71 171.05,489.33 171.05,382.6 182.3,371.34 171.05,360.08 171.05,253.35 187.43,236.97 777.92,236.97 794.3,253.35 794.3,360.08 777.92,376.46 712.75,376.46 718.88,382.6 718.88,489.33 "/>
  <rect class="fil2" x="171.05" y="338.53" width="547.84" height="139.49" rx="18.56" ry="16.38"/>
  <rect class="fil3" x="292.33" y="478.03" width="524.37" height="139.49" rx="17.76" ry="16.38"/>
  <rect class="fil4" x="292.33" y="617.52" width="528.49" height="139.49" rx="17.9" ry="16.38"/>
  <polygon class="fil2" points="458.79,498.85 487.08,473.29 373.93,473.29 402.22,498.85 "/>
  <polygon class="fil3" points="458.79,638.35 487.08,612.78 373.93,612.78 402.22,638.35 "/>
  <polygon class="fil5" points="458.79,782.58 487.08,757.02 373.93,757.02 402.22,782.58 "/>
  <rect class="fil6" x="171.05" y="209.28" width="623.25" height="139.49" rx="21.11" ry="16.38"/>
  <polygon class="fil6" points="337.51,369.6 365.8,344.04 252.65,344.04 280.93,369.6 "/>
  <rect class="fil7" x="580.24" y="234.83" width="181.55" height="88.39" rx="142.65" ry="170.26"/>
  <rect class="fil7" x="444.2" y="505.97" width="117.72" height="88.39" rx="92.5" ry="170.26"/>
  <rect class="fil8" x="239.28" y="258.94" width="120.51" height="40.17"/>
  <rect class="fil8" x="399.95" y="258.94" width="40.17" height="40.17"/>
  <rect class="fil8" x="480.29" y="258.94" width="40.17" height="40.17"/>
  <rect class="fil9" x="617.57" y="258.94" width="40.17" height="40.17"/>
  <rect class="fil9" x="482.98" y="530.08" width="40.17" height="40.17"/>
  <rect class="fil8" x="404.98" y="388.19" width="120.51" height="40.17"/>
  <rect class="fil8" x="326.33" y="527.69" width="100.76" height="40.17"/>
  <rect class="fil8" x="324.65" y="388.19" width="40.17" height="40.17"/>
  <rect class="fil8" x="661.84" y="527.69" width="120.51" height="40.17"/>
  <rect class="fil8" x="581.5" y="527.69" width="40.17" height="40.17"/>
  <rect class="fil8" x="557.6" y="667.18" width="120.51" height="40.17"/>
  <rect class="fil8" x="326.33" y="667.18" width="120.51" height="40.17"/>
  <rect class="fil8" x="482.14" y="667.18" width="40.17" height="40.17"/>
  <rect class="fil8" x="244.31" y="388.19" width="40.17" height="40.17"/>
  <polygon class="fil9" points="705.14,299.11 718.49,279.03 731.84,258.94 705.14,258.94 678.43,258.94 691.78,279.03 "/>
  <polygon class="fil9" points="747.55,713 760.9,692.91 774.25,672.83 747.55,672.83 720.84,672.83 734.2,692.91 "/>
 </g>
</svg>