<?xml version="1.0" encoding="UTF-8"?>
<!DOCTYPE svg PUBLIC "-//W3C//DTD SVG 1.1//EN" "http://www.w3.org/Graphics/SVG/1.1/DTD/svg11.dtd">
<!-- Creator: CorelDRAW 2018 (64-Bit) -->
<svg xmlns="http://www.w3.org/2000/svg" xml:space="preserve" width="71.638mm" height="71.638mm" version="1.1" style="shape-rendering:geometricPrecision; text-rendering:geometricPrecision; image-rendering:optimizeQuality; fill-rule:evenodd; clip-rule:evenodd" viewBox="0 0 8502.55 8502.55" xmlns:xlink="http://www.w3.org/1999/xlink">
 <defs>
  <style type="text/css">
   <![CDATA[
    .fil2 {fill:none}
    .fil9 {fill:#4482C3}
    .fil6 {fill:#46234D}
    .fil7 {fill:#4FBA6F}
    .fil12 {fill:#63ABFF}
    .fil3 {fill:#7F8C8D}
    .fil4 {fill:#813F8E}
    .fil10 {fill:#955BA5}
    .fil5 {fill:#AB33A3}
    .fil8 {fill:#CF2366}
    .fil1 {fill:#D0941F}
    .fil11 {fill:#DB3B50}
    .fil0 {fill:#EDAC1A}
   ]]>
  </style>
 </defs>
 <g id="Слой_x0020_1">
  <metadata id="CorelCorpID_0Corel-Layer"/>
  <circle class="fil0" cx="4251.27" cy="4251.27" r="4251.28"/>
  <path class="fil1" d="M5523.31 2869.07c130.21,71.77 240.71,179.62 321.16,309.93 7,8.11 12.6,17.45 16.44,27.64 80.24,140.46 126.38,304.74 126.38,476.98 0,3.01 -0.01,6.04 -0.05,9.04 0.04,0.94 0.05,1.88 0.05,2.81 0,1.79 -0.06,3.56 -0.17,5.33 -3.11,175.33 -53.8,341.41 -139.29,481.79 -4.72,13.42 -12.49,25.41 -22.48,35.12 -83.66,124.57 -195.67,226.4 -326.17,292.85 158.23,91.39 281.99,240.56 364.64,414.14 4.71,7.25 8.44,15.2 10.95,23.68 53.78,119.73 88.33,250.09 101.54,380.55 0.45,3.66 0.65,7.32 0.65,10.97l101.67 0c50.43,0 91.35,40.91 91.35,91.35l0 182.72c0,50.43 -40.92,91.35 -91.35,91.35l-182.72 0 0 548.14 182.72 0c252.27,0 456.77,204.5 456.77,456.78l0 182.72 182.71 0c50.47,0 91.35,40.89 91.35,91.34 0,50.45 -40.89,91.35 -91.35,91.35l-4567.79 0c-50.45,0 -91.35,-40.9 -91.35,-91.34 0,-50.47 40.9,-91.35 91.35,-91.35l182.71 0 0 -182.72c0,-252.28 204.52,-456.78 456.78,-456.78l0 -182.71c-0.05,-133.62 24.15,-263.28 69.21,-383.91 -757.38,-645.26 -930.42,-1746.58 -407.72,-2592.95 -146.41,-147.02 -296.04,-297.8 -446.24,-449.92 -0.91,-0.91 -1.8,-1.83 -2.73,-2.73 -17.3,-17.15 -27.03,-40.51 -27.03,-64.87 0,-24.35 9.72,-47.7 27.03,-64.85l64.85 -64.86 -319.73 -319.76c-34.31,-34.27 -53.59,-80.77 -53.59,-129.26 0,-48.5 19.27,-95 53.59,-129.27l128.8 -128.8c34.28,-34.31 80.78,-53.6 129.27,-53.6 48.5,0 95,19.29 129.26,53.6l320.09 320.08 64.52 -65.2c17.15,-17.3 40.51,-27.04 64.86,-27.04 24.37,0 47.71,9.73 64.83,27.07 0.95,0.88 1.88,1.77 2.78,2.69l1550.32 1550.32c0.91,0.91 1.82,1.84 2.74,2.73 17.28,17.16 27.01,40.5 27.01,64.86 0,24.35 -9.73,47.71 -27.01,64.87l-64.87 64.85 193.67 193.69c68.89,71.78 67.66,185.5 -2.74,255.78l-128.8 128.81c-34.28,34.31 -80.78,53.59 -129.27,53.59 -48.5,0 -95,-19.27 -129.26,-53.59l-193.69 -193.66 -64.85 64.85c-17.16,17.3 -40.51,27.03 -64.86,27.03 -24.35,0 -47.71,-9.72 -64.87,-27.03 -66.67,-66.07 -137.49,-136.3 -211.82,-210.08 -53.23,25.16 -112.73,39.25 -175.52,39.25 -194.78,0 -357.9,-135.45 -400.36,-317.26 -172.92,545.67 -13.74,1142.08 408.04,1529.05 84.94,-72.28 181.77,-132.29 288.3,-176.74 94.07,-39.52 201.7,-29.26 286.61,27.35 84.9,56.6 135.78,152 135.47,254.04l0 913.56 730.83 0 0 -548.14 -182.71 0c-50.43,0 -91.35,-40.92 -91.35,-91.35l0 -182.72c0,-50.44 40.92,-91.35 91.35,-91.35l98.24 0c-0.07,-3.62 0.07,-7.28 0.44,-10.97 34.18,-338.89 209.03,-663.31 478.94,-818.89 -132.06,-67.18 -245.08,-170.38 -328.84,-297.02 -6.43,-7.23 -11.75,-15.5 -15.65,-24.52 -87.14,-141.19 -138.76,-309.31 -141.64,-488.14 -0.08,-1.61 -0.13,-3.24 -0.13,-4.88 0,-0.87 0.01,-1.72 0.05,-2.59 -0.04,-2.78 -0.05,-5.58 -0.05,-8.38 0,-175.99 46.98,-342.14 128.56,-483.17 2.85,-6.35 6.41,-12.33 10.56,-17.82 81.25,-133.52 194.03,-243.2 327.32,-315.47 -261.41,-162.34 -424.61,-483.36 -457.3,-806.03 -5.04,-50.45 31.77,-95.44 82.21,-100.48 50.45,-5.04 95.45,31.76 100.49,82.21 9.82,94.77 33.22,190.93 69.15,281.37l943.42 0c35.89,-90.49 59.27,-186.66 69.09,-281.37 5.03,-50.45 50.04,-87.26 100.48,-82.21 50.47,5.04 87.27,50.04 82.23,100.48 -33.29,329.37 -200.02,647.19 -458.48,807.03z"/>
  <path class="fil2" d="M5265.71 2211.91l-497.21 0c0,274.6 222.61,497.21 497.21,497.21 274.6,0 497.21,-222.61 497.21,-497.21l-497.21 0z"/>
  <path class="fil2" d="M5234.31 4902.08l-497.21 0c0,-274.6 222.61,-497.21 497.21,-497.21 274.6,0 497.21,222.61 497.21,497.21l-497.21 0z"/>
  <path id="Shape" class="fil3" d="M4331 4062.34l-128.81 128.81c-34.28,34.31 -80.78,53.59 -129.27,53.59 -48.5,0 -95,-19.27 -129.26,-53.59l-193.67 -193.67 -64.86 64.86c-17.15,17.3 -40.51,27.03 -64.86,27.03 -24.37,0 -47.71,-9.72 -64.86,-27.03 -410.18,-406.53 -977.51,-970.2 -1553.05,-1553.05 -17.3,-17.15 -27.03,-40.51 -27.03,-64.86 0,-24.35 9.72,-47.71 27.03,-64.86l64.86 -64.86 -319.76 -319.74c-34.3,-34.28 -53.59,-80.78 -53.59,-129.27 0,-48.5 19.29,-95 53.59,-129.26l128.81 -128.81c34.28,-34.31 80.78,-53.59 129.27,-53.59 48.5,0 95,19.27 129.26,53.59l322.49 322.49 64.86 -64.86c17.15,-17.3 40.51,-27.03 64.86,-27.03 24.37,0 47.71,9.72 64.86,27.03l1553.05 1553.05c17.3,17.15 27.03,40.51 27.03,64.86 0,24.35 -9.72,47.71 -27.03,64.86l-64.86 64.86 193.67 193.67c68.89,71.79 67.66,185.5 -2.74,255.8l0.01 0z"/>
  <path id="Shape_0" class="fil4" d="M2452.72 2959.67c-524.47,846.74 -351.72,1949.61 406.53,2595.43l317 -451.3c-422.35,-387.11 -581.69,-984.15 -408.36,-1530.22l387.35 -466.83 -702.52 -147.08z"/>
  <path id="Shape_1" class="fil5" d="M2789.81 6121.51l3288.82 0c252.27,0 456.77,204.5 456.77,456.77l0 274.07 -4202.38 0 0 -274.06c0,-252.28 204.51,-456.78 456.78,-456.78l0 0z"/>
  <path id="Shape_2" class="fil5" d="M3886.1 6121.51l-1096.28 0 0 -182.72c-0.18,-442.56 265.75,-841.84 674.21,-1012.23 94.07,-39.52 201.7,-29.26 286.61,27.35 84.9,56.6 135.77,151.99 135.47,254.04l0 913.56z"/>
  <path id="Shape_3" class="fil6" d="M6718.13 6943.71l-4567.8 0c-50.45,0 -91.35,-40.9 -91.35,-91.35 0,-50.45 40.9,-91.35 91.35,-91.35l4567.8 0c50.45,0 91.35,40.9 91.35,91.35 0,50.45 -40.9,91.35 -91.35,91.35l0 0z"/>
  <path id="Shape_4" class="fil7" d="M5775.33 3198.11l-1037.81 0c-50.45,0 -91.35,-40.9 -91.35,-91.35 0,-50.45 40.9,-91.35 91.35,-91.35l1037.81 0c50.45,0 91.35,40.9 91.35,91.35 0,50.44 -40.9,91.35 -91.35,91.35l0 0z"/>
  <path id="Shape_5" class="fil8" d="M5787.2 2375.9l-1061.55 0c-50.45,0 -91.35,-40.9 -91.35,-91.35 0,-50.44 40.91,-91.35 91.35,-91.35l1061.55 0c50.47,0 91.37,40.9 91.37,91.35 0,50.45 -40.91,91.35 -91.37,91.35l0 0z"/>
  <path id="Shape_6" class="fil9" d="M5787.2 4933.87l-1061.55 0c-50.45,0 -91.35,-40.9 -91.35,-91.35 0,-50.45 40.91,-91.35 91.35,-91.35l1061.55 0c50.47,0 91.37,40.9 91.37,91.35 0,50.45 -40.91,91.35 -91.37,91.35l0 0z"/>
  <path id="Shape_7" class="fil10" d="M5895.92 3654.89l-1278.98 0c-50.45,0 -91.35,-40.9 -91.35,-91.35 0,-50.45 40.9,-91.35 91.35,-91.35l1278.98 -0.01c50.45,0 91.35,40.91 91.35,91.35 0,50.45 -40.9,91.35 -91.35,91.35l0 0.01z"/>
  <path id="Shape_8" class="fil5" d="M5761.62 4111.67l-1010.39 0c-50.45,0 -91.35,-40.91 -91.35,-91.35 0,-50.45 40.9,-91.37 91.35,-91.37l1010.39 0c50.45,0 91.35,40.9 91.35,91.35 0,50.45 -40.9,91.35 -91.35,91.35l0 0.01z"/>
  <path id="Shape_9" class="fil11" d="M5239.98 4453.34c-407.44,-67.6 -714.41,-452.21 -714.41,-900.77 0,-448.56 305.13,-833.16 710.75,-900.77 6.74,-0.07 13.46,-0.69 20.11,-1.83l14.62 0c408.36,64.86 716.23,456.78 716.23,901.68 0,444.91 -306.96,834.08 -714.42,901.68 -10.84,2.29 -22.04,2.29 -32.89,0l0 0zm16.45 -1620.66c-313.35,57.55 -548.14,365.43 -548.14,718.97 0,353.55 234.78,661.42 548.14,718.97 313.35,-57.55 548.14,-365.43 548.14,-718.97 0,-353.55 -234.79,-660.51 -548.14,-718.97z"/>
  <path id="Shape_10" class="fil11" d="M5239.07 2832.68c-404.7,-75.82 -662.32,-487.84 -704.35,-902.6 -5.04,-50.45 31.77,-95.45 82.21,-100.49 50.47,-5.04 95.45,31.77 100.49,82.23 33.8,326.14 228.39,668.72 540.82,738.15 312.45,-68.52 507.03,-412.02 540.84,-738.15 5.04,-50.45 50.04,-87.27 100.49,-82.23 50.45,5.04 87.26,50.04 82.21,100.49 -42.94,424.81 -307.88,830.43 -705.27,902.6 -12.33,2.82 -25.14,2.82 -37.46,0l0 0z"/>
  <path id="Shape_11" class="fil11" d="M5887.71 5299.3c-47.1,0.24 -86.65,-35.37 -91.35,-82.21 -32.9,-328.88 -229.3,-670.56 -539.92,-739.99 -311.52,69.43 -506.11,409.28 -540.82,738.15 -5.04,50.47 -50.04,87.27 -100.49,82.23 -50.45,-5.04 -87.26,-50.04 -82.21,-100.49 42.93,-425.72 307.86,-828.59 704.35,-902.6 11.16,-2.29 22.66,-2.29 33.8,0 405.62,74 663.25,487.84 705.27,902.6 3.1,25.6 -4.76,51.31 -21.64,70.8 -16.88,19.49 -41.2,30.94 -66.98,31.52l0 0z"/>
  <path id="Shape_12" class="fil5" d="M3555.37 4062.34c17.16,17.3 40.51,27.03 64.86,27.03 24.37,0 47.71,-9.72 64.86,-27.03l517.07 -517.07c17.3,-17.15 27.03,-40.5 27.03,-64.86 0,-24.35 -9.72,-47.71 -27.03,-64.86l-1553.05 -1553.05c-17.15,-17.29 -40.5,-27.03 -64.86,-27.03 -24.35,0 -47.71,9.73 -64.86,27.03l-514.33 519.82c-17.29,17.15 -27.03,40.51 -27.03,64.86 0,24.35 9.73,47.71 27.03,64.86l1550.31 1550.31z"/>
  <circle id="Oval" class="fil12" cx="3168.03" cy="3480.4" r="411.1"/>
  <polygon id="Rectangle-path" class="fil4" points="4616.94,5573.37 5895.92,5573.37 5895.92,6121.51 4616.94,6121.51 "/>
  <path class="fil12" d="M4434.22 5207.95l1644.42 0c50.44,0 91.35,40.9 91.35,91.35l0 182.71c0,50.44 -40.91,91.35 -91.35,91.35l-1644.42 0.01c-50.44,-0.01 -91.35,-40.92 -91.35,-91.37l0 -182.71c0,-50.45 40.91,-91.35 91.35,-91.35z"/>
  <circle id="Oval_13" class="fil8" cx="3337.95" cy="5482.01" r="91.35"/>
 </g>
</svg>