<?xml version="1.0" encoding="UTF-8"?>
<!DOCTYPE svg PUBLIC "-//W3C//DTD SVG 1.1//EN" "http://www.w3.org/Graphics/SVG/1.1/DTD/svg11.dtd">
<!-- Creator: CorelDRAW 2018 (64-Bit) -->
<svg xmlns="http://www.w3.org/2000/svg" xml:space="preserve" width="71.638mm" height="71.638mm" version="1.1" style="shape-rendering:geometricPrecision; text-rendering:geometricPrecision; image-rendering:optimizeQuality; fill-rule:evenodd; clip-rule:evenodd" viewBox="0 0 2302.95 2302.95" xmlns:xlink="http://www.w3.org/1999/xlink">
 <defs>
  <style type="text/css">
   <![CDATA[
    .fil3 {fill:#63ABFF}
    .fil4 {fill:#7CFF40}
    .fil6 {fill:#813F8E}
    .fil5 {fill:#E06E37}
    .fil1 {fill:#EDAC1A}
    .fil0 {fill:#F8D500}
    .fil2 {fill:white}
   ]]>
  </style>
 </defs>
 <g id="Слой_x0020_1">
  <metadata id="CorelCorpID_0Corel-Layer"/>
  <circle class="fil0" cx="1151.47" cy="1151.47" r="1151.47"/>
  <path class="fil1" d="M1681.54 562.06c95.27,41.37 124.23,122.27 124.23,218.76 74.34,0 141.65,18.45 169.11,100.18 27.66,82.32 -20.83,151.43 -71.34,178.24 -51.35,27.25 -182.03,16.65 -248.98,16.65l-265.52 0c-77.21,0 -486.91,5.31 -527.64,-3.09 -288.46,-59.48 -54.11,-402.72 71.36,-267.19 -49.45,-177.24 121.71,-415.3 339.76,-373.29 83.04,16 133.29,60.44 170.88,101.96 55.98,19.97 37.96,47.49 37.96,47.49 18.58,-12.52 32.25,-19.86 57.07,-27.77 47.48,-15.12 100.24,-10.56 143.13,8.07zm-170.82 572.81l0 295.03 0 -295.03zm58.99 354.02l0.01 -354.03 59.02 0 0 649.09 -1180.13 0 0.02 -826.1 238.76 0.96c134.18,800.38 -521.2,530.08 882.33,530.08z"/>
  <rect class="fil0" x="473.76" y="1070.57" width="1119.33" height="649.07"/>
  <path class="fil2" d="M1498.92 606.51l203.28 169.03 -203.28 169.03c-7.59,-8.41 -30.93,-35.72 -34.98,-46.11 32.63,-28.49 123.57,-99.38 146.1,-122.91 -22.8,-23.82 -112.23,-93.35 -146.1,-122.92 4.04,-10.39 27.38,-37.7 34.98,-46.11zm-382.43 169.03c26.01,29.26 122.26,98.9 145.83,125.39 -8.45,12.04 -25,33.4 -34.82,43.56 -16.19,-7.96 -35.59,-28.07 -51.61,-40.67 -17.55,-13.8 -33.8,-27.85 -50.51,-41.74 -17.72,-14.73 -33.78,-27.7 -50.05,-42.06 -16.94,-14.95 -35.75,-27.43 -50.98,-44.47l149.42 -126.68c16.13,-12.73 37.72,-34.39 53.74,-42.27 9.81,10.16 26.37,31.52 34.82,43.56 -24.01,26.99 -119.73,96.01 -145.83,125.39zm217.52 185.49l-56.2 -17.88 116.88 -353.13 54.84 16.49c-5.04,38.43 -42.72,133.9 -56.89,176.33 -17.68,52.93 -46.79,125.62 -58.63,178.18zm-472.64 47.46c40.73,8.4 450.43,3.09 527.64,3.09 88.51,0 177.02,0 265.52,0 66.96,0 197.63,10.61 248.98,-16.65 50.51,-26.8 99,-95.91 71.34,-178.24 -27.46,-81.73 -94.76,-100.18 -169.11,-100.18 0,-96.49 -28.95,-177.39 -124.23,-218.76 -42.89,-18.63 -95.66,-23.19 -143.13,-8.07 -24.82,7.9 -38.49,15.24 -57.07,27.77 0,0 18.02,-27.53 -37.96,-47.49 -37.58,-41.52 -87.84,-85.96 -170.88,-101.96 -218.05,-42.01 -389.21,196.05 -339.76,373.29 -125.46,-135.53 -359.82,207.71 -71.36,267.19z"/>
  <path class="fil3" d="M448.61 1719.64l1180.13 0 0 -649.09 -59.02 0 -0.01 354.03 -413.02 0 -0.01 236.02 -647.2 0 -1.83 -413.01 416.71 0 -3.68 -177.04 -22.14 0c-114.1,0 -194.12,-74.42 -211.16,-176.05l-238.76 -0.96 -0.02 826.1z"/>
  <path class="fil4" d="M1038.68 1247.58l413.03 0 0 59.01 -413.03 0 0 -59.01zm0 -118.01l413.03 0 0 59.01 -413.03 0 0 -59.01zm-59.01 236.02l531.05 0 0 -295.03 -531.05 0 0 295.03z"/>
  <path class="fil5" d="M625.64 1483.6l413.04 0 0 59.01 -413.04 0 0 -59.01zm0 -118.01l236.02 0 0 59.01 -236.02 0 0 -59.01zm-59.01 236.02l531.05 0 0 -177.01 -177.02 0 0 -118.01 -354.03 0 0 295.03z"/>
  <path class="fil6" d="M1116.5 775.54c26.1,-29.38 121.82,-98.4 145.83,-125.39 -8.45,-12.05 -25,-33.41 -34.82,-43.56 -16.01,7.88 -37.61,29.54 -53.74,42.27l-149.42 126.68c15.23,17.04 34.04,29.52 50.98,44.47 16.28,14.36 32.33,27.33 50.05,42.06 16.71,13.89 32.96,27.94 50.51,41.74 16.02,12.6 35.42,32.71 51.61,40.67 9.81,-10.16 26.37,-31.52 34.82,-43.56 -23.57,-26.49 -119.82,-96.13 -145.83,-125.39z"/>
  <path class="fil6" d="M1498.92 606.51c-7.59,8.41 -30.93,35.72 -34.98,46.11 33.87,29.57 123.3,99.1 146.1,122.92 -22.53,23.53 -113.47,94.43 -146.1,122.91 4.04,10.39 27.38,37.7 34.98,46.11l203.28 -169.03 -203.28 -169.03z"/>
  <polygon class="fil6" points="1038.68,1188.58 1451.71,1188.58 1451.71,1129.57 1038.68,1129.57 "/>
  <polygon class="fil6" points="1038.68,1306.59 1451.71,1306.59 1451.71,1247.58 1038.68,1247.58 "/>
  <polygon class="fil6" points="625.64,1542.61 1038.68,1542.61 1038.68,1483.6 625.64,1483.6 "/>
  <path class="fil6" d="M1334.02 961.04c11.84,-52.56 40.95,-125.25 58.63,-178.18 14.17,-42.44 51.85,-137.9 56.89,-176.33l-54.84 -16.49 -116.88 353.13 56.2 17.88z"/>
  <polygon class="fil6" points="625.64,1424.6 861.66,1424.6 861.66,1365.6 625.64,1365.6 "/>
 </g>
</svg>