<?xml version="1.0" encoding="UTF-8"?>
<!DOCTYPE svg PUBLIC "-//W3C//DTD SVG 1.1//EN" "http://www.w3.org/Graphics/SVG/1.1/DTD/svg11.dtd">
<!-- Creator: CorelDRAW 2018 (64-Bit) -->
<svg xmlns="http://www.w3.org/2000/svg" xml:space="preserve" width="67.9021mm" height="67.9021mm" version="1.1" style="shape-rendering:geometricPrecision; text-rendering:geometricPrecision; image-rendering:optimizeQuality; fill-rule:evenodd; clip-rule:evenodd" viewBox="0 0 936.23 936.23" xmlns:xlink="http://www.w3.org/1999/xlink">
 <defs>
  <style type="text/css">
   <![CDATA[
    .fil6 {fill:#813F8E}
    .fil2 {fill:#DB3B50}
    .fil5 {fill:#E06E37}
    .fil1 {fill:#EDAC1A}
    .fil0 {fill:#F8D500}
    .fil3 {fill:#FEE500}
    .fil4 {fill:#FFA638}
   ]]>
  </style>
 </defs>
 <g id="Слой_x0020_1">
  <metadata id="CorelCorpID_0Corel-Layer"/>
  <circle class="fil0" cx="468.11" cy="468.11" r="468.11"/>
  <polygon class="fil1" points="759.91,334.57 471.2,167.89 182.49,334.57 181.77,334.98 181.77,669.18 181.86,669.24 471.2,836.27 760.52,669.22 760.61,669.18 760.61,334.98 "/>
  <polygon class="fil2" points="759.91,306.99 471.2,140.31 182.49,306.99 181.77,307.41 181.77,641.6 181.86,641.66 471.2,808.7 760.52,641.65 760.61,641.6 760.61,307.41 "/>
  <polygon class="fil3" points="666.53,362.09 466.51,246.61 266.5,362.09 266,362.37 266,593.9 266.06,593.94 466.51,709.66 666.95,593.93 667.01,593.9 667.01,362.37 "/>
  <polygon class="fil1" points="666.53,362.09 466.51,246.61 466.51,477.58 466.51,478.21 466.51,709.66 666.95,593.93 667.01,593.9 667.01,362.37 "/>
  <polygon class="fil1" points="466.51,477.58 466.51,478.21 266.06,593.94 266,593.9 266,362.37 266.5,362.09 "/>
  <polygon class="fil4" points="667.01,362.37 667.01,593.9 666.95,593.93 466.51,478.21 466.51,477.58 666.53,362.09 "/>
  <polygon class="fil5" points="667.01,362.37 667.01,593.9 666.95,593.93 466.51,478.21 466.51,477.58 666.53,362.09 "/>
  <path class="fil6" d="M479.97 321.57l-0 -0.2c-0.11,-5.68 -4.75,-10.25 -10.45,-10.25 -5.7,0 -10.34,4.57 -10.45,10.25l-0 0.2 0 0.07 0 0 0 0.2c0.11,5.66 4.77,10.25 10.45,10.25l0 0c5.68,0 10.34,-4.59 10.45,-10.25l0 -0.2 0 -0 0 -0.07zm-10.46 -177.73l0 0c5.75,0 10.45,4.7 10.45,10.45l0 125.46c0,5.75 -4.7,10.45 -10.45,10.45l-0 0c-5.75,0 -10.45,-4.7 -10.45,-10.45l0 -125.46c0,-5.75 4.7,-10.45 10.45,-10.45z"/>
  <path class="fil6" d="M610.17 546.97l0.17 0.1c4.86,2.94 6.5,9.25 3.64,14.18 -2.85,4.93 -9.14,6.66 -14.11,3.91l-0.18 -0.1 -0.06 -0.03 -0 0 -0.17 -0.1c-4.84,-2.93 -6.49,-9.26 -3.64,-14.18l0 -0c2.85,-4.92 9.16,-6.65 14.11,-3.91l0.18 0.1 0 0 0.06 0.03zm148.6 98.06l0 -0c2.88,-4.98 1.17,-11.4 -3.81,-14.28l-108.59 -62.83c-4.98,-2.88 -11.4,-1.16 -14.28,3.81l0 0c-2.88,4.98 -1.17,11.4 3.81,14.28l108.59 62.83c4.98,2.88 11.4,1.17 14.28,-3.81z"/>
  <path class="fil6" d="M326.06 546.97l-0.17 0.1c-4.86,2.94 -6.5,9.25 -3.64,14.18 2.85,4.93 9.14,6.66 14.11,3.91l0.18 -0.1 0.06 -0.03 0 0 0.17 -0.1c4.84,-2.93 6.49,-9.26 3.64,-14.18l0 -0c-2.85,-4.92 -9.16,-6.65 -14.11,-3.91l-0.18 0.1 -0 0 -0.06 0.03zm-148.6 98.06l0 -0c-2.88,-4.98 -1.17,-11.4 3.81,-14.28l108.59 -62.83c4.98,-2.88 11.4,-1.16 14.28,3.81l0 0c2.88,4.98 1.17,11.4 -3.81,14.28l-108.59 62.83c-4.98,2.88 -11.4,1.17 -14.28,-3.81z"/>
 </g>
</svg>