<?xml version="1.0" encoding="UTF-8"?>
<!DOCTYPE svg PUBLIC "-//W3C//DTD SVG 1.1//EN" "http://www.w3.org/Graphics/SVG/1.1/DTD/svg11.dtd">
<!-- Creator: CorelDRAW 2018 (64-Bit) -->
<svg xmlns="http://www.w3.org/2000/svg" xml:space="preserve" width="71.6381mm" height="71.6381mm" version="1.1" style="shape-rendering:geometricPrecision; text-rendering:geometricPrecision; image-rendering:optimizeQuality; fill-rule:evenodd; clip-rule:evenodd" viewBox="0 0 8812.12 8812.12" xmlns:xlink="http://www.w3.org/1999/xlink">
 <defs>
  <style type="text/css">
   <![CDATA[
    .fil2 {fill:#6C3E7E}
    .fil8 {fill:#2A2F4F}
    .fil7 {fill:#2BA1CF}
    .fil5 {fill:#3D4159}
    .fil6 {fill:#66BAED}
    .fil4 {fill:#802897}
    .fil1 {fill:#813F8E}
    .fil3 {fill:#B857CF}
    .fil13 {fill:#BF8E75}
    .fil19 {fill:#D25922}
    .fil12 {fill:#D3A489}
    .fil0 {fill:#E06E37}
    .fil16 {fill:#E7AD27}
    .fil9 {fill:#EAB599}
    .fil21 {fill:#EDAC1A}
    .fil10 {fill:#F6CAAE}
    .fil14 {fill:#F7CB15}
    .fil20 {fill:#F8D500}
    .fil15 {fill:#FEDE3A}
    .fil17 {fill:#FEE500}
    .fil18 {fill:#FFF335}
    .fil11 {fill:white}
   ]]>
  </style>
 </defs>
 <g id="Слой_x0020_1">
  <metadata id="CorelCorpID_0Corel-Layer"/>
  <circle class="fil0" cx="4406.06" cy="4406.06" r="4406.06"/>
  <path class="fil1" d="M7702.64 4980.12l0 -1148.11 -725.55 0c-67.15,-302.12 -186.12,-584.71 -347.22,-837.92l513.16 -513.16 -811.85 -811.85 -513.16 513.16c-253.21,-161.09 -535.8,-280.05 -837.92,-347.22l0 -725.57 -1148.11 0 0 725.54c-302.12,67.18 -584.71,186.12 -837.91,347.23l-513.16 -513.16 -811.85 811.85 513.13 513.16c-161.09,253.21 -280.07,535.79 -347.22,837.91l-725.55 0 0 1148.11 725.55 0c67.15,302.12 186.12,584.71 347.22,837.92l-513.14 513.16 811.85 811.85 513.17 -513.16c253.2,161.09 535.79,280.07 837.91,347.22l0 725.55 1148.11 0 0 -725.54c302.12,-67.18 584.71,-186.12 837.92,-347.23l513.16 513.16 811.85 -811.85 -513.16 -513.16c161.09,-253.21 280.07,-535.8 347.22,-837.92l725.55 0 0 0.02z"/>
  <path class="fil2" d="M6977.06 4980.15c-67.19,302.1 -186.03,584.72 -347.2,837.94l513.12 513.13 -811.78 811.78 -513.12 -513.13c-253.21,161.18 -535.85,280.02 -837.94,347.2l0 725.63 -574.09 0 0 -6593.3 574.09 0 0 725.63c302.08,67.19 584.72,186.03 837.94,347.2l513.12 -513.12 811.78 811.77 -513.12 513.13c161.18,253.21 280.02,535.84 347.2,837.94l725.63 0 0 1148.19 -725.63 0z"/>
  <circle class="fil3" cx="4406.03" cy="4406.05" r="2352.3"/>
  <path class="fil4" d="M6758.34 4406.05c0,1299.24 -1053.07,2352.3 -2352.3,2352.3l0 -4704.59c1299.23,0 2352.3,1053.05 2352.3,2352.3z"/>
  <path class="fil5" d="M4846.51 5987.82l0 281.68c-343.35,226.46 -726.56,353.08 -1130.91,353.08 -404.33,0 -787.66,-126.63 -1131.02,-353.26l0 -281.49c0,-555.83 267.99,-1023.32 632.03,-1160.38 13.31,-5.04 26.71,-9.68 40.3,-13.81 36.15,-11.06 73.29,-18.69 110.98,-22.98 23.09,-2.64 46.29,-4.02 69.82,-4.02l555.58 0c62.17,0 122.63,9.23 181.01,27 3.37,0.91 6.75,2.01 10.01,3.09 9.8,3.21 19.58,6.59 29.26,10.27 0.37,0.11 0.46,0.11 0.77,0.28 96.08,36.16 185.48,95.38 264.86,173.11 222.04,216.83 367.3,578.18 367.3,987.44l-0.01 -0.01zm0 0z"/>
  <path class="fil6" d="M4181.55 4889.75l-1.96 9.18 -257.75 1198.71c-13.33,1.12 -26.72,2.15 -40.14,3.09 -18.89,1.23 -37.86,2.35 -56.95,3.2 -38.98,1.85 -78.16,2.77 -117.57,2.77 -40.46,0 -80.56,-0.92 -120.46,-2.89 -18.05,-0.81 -36.14,-1.85 -54.19,-3.2 -13.49,-0.92 -26.91,-1.85 -40.33,-2.96l-257.65 -1198.6 -1.93 -9.3 948.94 0.01zm0 0z"/>
  <g>
   <path class="fil5" d="M3924.04 5163.18l-216.94 347.89 -216.91 -347.89 433.85 0zm0 0l0 0 0 0z"/>
  </g>
  <path class="fil5" d="M3881.7 6100.72c-18.89,1.23 -37.86,2.35 -56.95,3.2 -38.98,1.85 -78.16,2.77 -117.57,2.77 -40.46,0 -80.56,-0.92 -120.46,-2.89 -18.05,-0.81 -36.14,-1.85 -54.19,-3.2l174.65 -680.07 174.52 680.19zm0 0z"/>
  <g>
   <path class="fil7" d="M3707.07 5202.4l-363.82 202.18 -110.67 -514.75 226.04 -133.16 248.45 445.73zm0 0l0 0 0 0z"/>
  </g>
  <g>
   <path class="fil7" d="M3707.07 5202.4l363.79 202.18 110.67 -514.75 -226.05 -133.16 -248.4 445.73zm0 0l0 0 0 0z"/>
  </g>
  <path class="fil8" d="M4195.29 5584.45l115.41 0 -201.56 490.35c-93.24,14.96 -188.13,24.75 -284.38,29.12l354.11 -1205.19 2.71 -8.99 248.91 81.3 -235.18 613.42zm0 0z"/>
  <path class="fil8" d="M3586.71 6103.79c-96.37,-4.43 -191.34,-14.42 -284.58,-29.5l-201.37 -489.85 115.41 0 -235.25 -613.42 248.98 -81.28 2.71 8.98 354.11 1205.07zm0 0z"/>
  <path class="fil9" d="M3995.42 4560.32l0 353.8c0,129.57 -85.42,239.04 -203.06,275.4 -26.95,8.36 -55.65,12.88 -85.34,12.88 -159.21,0 -288.23,-129.07 -288.23,-288.28l0 -353.8 576.64 0zm0 0z"/>
  <path class="fil10" d="M3995.42 4891.7l0 22.45c0,129.53 -85.42,239.01 -203.06,275.4 -106.16,-32.66 -185.99,-124.94 -200.71,-237.89 19.28,1.19 38.64,1.77 58.07,1.77 54.57,0 108.05,-4.32 160.11,-12.84 64.2,-10.33 126.21,-26.88 185.6,-48.9l0 0zm0 0z"/>
  <path class="fil10" d="M2916.21 3980.43c0,133.46 -97.52,244.14 -225.19,264.69 -13.95,2.24 -28.3,3.43 -42.92,3.43 -148.11,0 -268.16,-120.01 -268.16,-268.12 0,-148.1 120.01,-268.15 268.16,-268.15 14.61,0 28.96,1.19 42.92,3.47 127.68,20.55 225.19,131.23 225.19,264.68zm0 0z"/>
  <path class="fil9" d="M2916.21 3980.43c0,133.46 -97.52,244.14 -225.19,264.69 -23.17,-84.33 -35.55,-173.1 -35.55,-264.69 0,-91.62 12.37,-180.34 35.55,-264.68 127.68,20.55 225.19,131.23 225.19,264.68zm0 0z"/>
  <path class="fil9" d="M2743.92 3980.43c0,52.91 -42.92,95.82 -95.82,95.82 -52.94,0 -95.82,-42.92 -95.82,-95.82 0,-52.94 42.88,-95.82 95.82,-95.82 52.91,0 95.82,42.88 95.82,95.82zm0 0z"/>
  <path class="fil10" d="M4497.95 3980.43c0,133.46 97.52,244.14 225.19,264.69 13.92,2.24 28.3,3.43 42.92,3.43 148.11,0 268.16,-120.01 268.16,-268.12 0,-148.1 -120.01,-268.15 -268.16,-268.15 -14.61,0 -28.99,1.19 -42.92,3.47 -127.67,20.55 -225.19,131.23 -225.19,264.68zm0 0z"/>
  <path class="fil9" d="M4497.95 3980.43c0,133.46 97.52,244.14 225.19,264.69 23.17,-84.33 35.55,-173.1 35.55,-264.69 0,-91.62 -12.37,-180.34 -35.55,-264.68 -127.67,20.55 -225.19,131.23 -225.19,264.68zm0 0z"/>
  <path class="fil9" d="M4704.68 3458.08l0 379.86c0,496.44 -362.67,908.24 -837.52,984.66 -1.57,0.27 -3.27,0.54 -4.86,0.81 -50.51,8.09 -102.33,12.07 -155.24,12.07 -550.93,0 -997.5,-446.62 -997.5,-997.5l0 -379.9c0,-115.98 19.78,-227.47 56.34,-331.05 136.43,-388.23 506.34,-666.56 941.16,-666.56l0.07 0c52.82,0 104.73,4.08 155.32,12.07 477.15,74.54 842.2,487.46 842.2,985.55l0.01 0zm0 0z"/>
  <path class="fil9" d="M4861.89 3980.43c0,52.91 -42.88,95.82 -95.82,95.82 -52.91,0 -95.82,-42.92 -95.82,-95.82 0,-52.94 42.92,-95.82 95.82,-95.82 52.94,0 95.82,42.88 95.82,95.82zm0 0z"/>
  <path class="fil10" d="M4704.63 3458.08l0 379.86c0,496.4 -362.63,908.24 -837.47,984.66 -1.61,0.27 -3.27,0.54 -4.9,0.81 -477.11,-74.58 -842.09,-487.46 -842.09,-985.47l0 -379.86c0,-498.09 365.05,-911 842.29,-985.55 477.15,74.54 842.18,487.46 842.18,985.55l-0.01 0zm0 0z"/>
  <path class="fil5" d="M3494.63 3779.84c0,62.5 -50.67,113.17 -113.14,113.17 -62.5,0 -113.17,-50.67 -113.17,-113.17 0,-62.48 50.67,-113.14 113.17,-113.14 62.48,0 113.14,50.67 113.14,113.14zm0 0z"/>
  <path class="fil5" d="M4145.89 3779.84c0,62.5 -50.67,113.17 -113.18,113.17 -62.5,0 -113.17,-50.67 -113.17,-113.17 0,-62.48 50.67,-113.14 113.17,-113.14 62.51,0 113.18,50.67 113.18,113.14zm0 0z"/>
  <path class="fil11" d="M3471.57 3759.9c0,26.77 -21.71,48.48 -48.5,48.48 -26.77,0 -48.48,-21.71 -48.48,-48.48 0,-26.79 21.71,-48.5 48.48,-48.5 26.79,0 48.5,21.7 48.5,48.5zm0 0z"/>
  <path class="fil11" d="M4128.33 3759.9c0,26.77 -21.7,48.48 -48.47,48.48 -26.8,0 -48.51,-21.71 -48.51,-48.48 0,-26.79 21.71,-48.5 48.51,-48.5 26.77,0 48.47,21.7 48.47,48.5zm0 0z"/>
  <path class="fil9" d="M3820.27 4020.42l-226.35 0c-26.95,0 -48.82,-21.86 -48.82,-48.82 0,-26.99 21.87,-48.81 48.82,-48.81l226.35 0c26.96,0 48.82,21.82 48.82,48.81 -0.04,26.96 -21.9,48.82 -48.82,48.82zm0 0z"/>
  <path class="fil9" d="M3707.1 4329.26c-83.52,0 -167.1,-20.94 -243.21,-62.82 -21.48,-11.8 -29.34,-38.78 -17.5,-60.23 11.8,-21.48 38.8,-29.31 60.27,-17.55 125.52,69.03 275.37,69.03 400.89,0 21.48,-11.8 48.47,-3.96 60.26,17.55 11.85,21.44 3.97,48.43 -17.5,60.23 -76.15,41.88 -159.68,62.82 -243.2,62.82l0 0zm0 0z"/>
  <path class="fil8" d="M4702.8 3251.56l0 389.13 -185.67 0 0 -304.75 -1340.23 -249.02 -283.57 -52.72 0 606.49 -185.67 0 0 -389.16c0,-443.61 359.54,-803.15 803.06,-803.15l389.02 0c10.57,0 21.13,0.2 31.69,0.74 428.77,16.51 771.38,369.41 771.38,802.46l0 -0.01zm0 0z"/>
  <path class="fil5" d="M4702.8 3251.56l0 389.13 -185.67 0 0 -304.75 -1340.23 -249.02c73.84,-354.68 381.56,-623.42 754.52,-637.8 428.77,16.51 771.38,369.41 771.38,802.46l0 -0.01zm0 0z"/>
  <path class="fil5" d="M4766.97 3004.19c-95.22,402.31 -498.57,651.27 -900.88,556.06 -402.31,-95.21 -651.28,-498.55 -556.07,-900.87 531.84,-132.8 859.63,462.32 1456.95,344.81zm0 0z"/>
  <path class="fil12" d="M4293.66 3000.7c0,109.64 -80.07,200.53 -184.92,217.38 -11.48,1.86 -23.26,2.83 -35.29,2.83 -121.64,0 -220.21,-98.57 -220.21,-220.21 0,-121.64 98.57,-220.21 220.21,-220.21 12.03,0 23.83,0.96 35.29,2.82 104.85,16.89 184.92,107.78 184.92,217.39zm0 0z"/>
  <path class="fil13" d="M4293.66 3000.7c0,109.64 -80.07,200.53 -184.92,217.38 -19.04,-69.24 -29.21,-142.14 -29.21,-217.38 0,-75.22 10.17,-148.11 29.21,-217.39 104.85,16.89 184.92,107.78 184.92,217.39zm0 0z"/>
  <path class="fil13" d="M4152.16 3000.7c0,43.46 -35.25,78.71 -78.71,78.71 -43.46,0 -78.68,-35.25 -78.68,-78.71 0,-43.47 35.22,-78.68 78.68,-78.68 43.46,0 78.71,35.21 78.71,78.68zm0 0z"/>
  <path class="fil14" d="M4839.9 3000.7l-2246.76 0c-93.55,0 -169.38,75.83 -169.38,169.4l0 0c0,93.55 75.83,169.38 169.38,169.38l2246.76 0.01c93.56,0 169.4,-75.83 169.4,-169.4l0 0c0.01,-93.56 -75.83,-169.4 -169.4,-169.4z"/>
  <path class="fil15" d="M4488.73 3000.7l-1544.39 0c-78.69,0 -142.48,63.79 -142.48,142.48l0 53.79c0,78.69 63.79,142.48 142.48,142.48l1544.39 -0.01c78.69,0 142.47,-63.78 142.47,-142.48l0 -53.79c0,-78.68 -63.78,-142.47 -142.47,-142.47z"/>
  <path class="fil16" d="M4839.9 3170.1l-2246.79 0c-62.7,0 -117.46,-34.06 -146.71,-84.7 -14.43,24.93 -22.68,53.84 -22.68,84.7 0,93.55 75.85,169.38 169.4,169.38l2246.79 0.01c93.56,0 169.4,-75.83 169.4,-169.4 0,-30.85 -8.25,-59.76 -22.68,-84.69 -29.3,50.64 -84,84.69 -146.71,84.69z"/>
  <path class="fil16" d="M3756.13 1996l-79.21 0c-554.89,0 -1004.7,449.81 -1004.7,1004.7l0 0 2088.6 0 0 0c0,-554.89 -449.86,-1004.7 -1004.7,-1004.7z"/>
  <path class="fil14" d="M3716.51 1996l0 0c-393.8,0 -713.02,319.22 -713.02,713.02l0 291.69 1426.03 -0.01 0 -291.69c0,-393.8 -319.22,-713.01 -713.01,-713.01z"/>
  <path class="fil15" d="M3676.89 2141.84l79.19 0c505.33,0 923.55,373.1 994.16,858.86l10.54 0c0,-554.89 -449.81,-1004.7 -1004.7,-1004.7l-79.19 0c-554.9,0 -1004.7,449.81 -1004.7,1004.7l10.53 0c70.66,-485.76 488.84,-858.86 994.17,-858.86z"/>
  <path class="fil15" d="M3835.51 2741.42l-237.97 0c-82.06,0 -152.84,-57.73 -169.31,-138.1l-101.94 -496.94c-21.99,-107.21 59.89,-207.6 169.31,-207.6l441.85 0c109.42,0 191.3,100.39 169.31,207.6l-101.94 496.94c-16.5,80.37 -87.25,138.1 -169.31,138.1z"/>
  <path class="fil16" d="M4004.82 2441.27c-16.5,80.37 -87.25,138.1 -169.31,138.1l-237.97 0c-82.06,0 -152.84,-57.73 -169.31,-138.1l-90.35 -440.43c-14.32,31.72 -19.24,68.2 -11.59,105.53l101.94 496.94c16.51,80.42 87.25,138.1 169.31,138.1l237.97 0.01c82.06,0 152.85,-57.73 169.31,-138.1l101.94 -496.94c7.65,-37.3 2.72,-73.82 -11.58,-105.53l-90.36 440.42z"/>
  <path class="fil17" d="M6307.12 6543.12l-2511.83 0 -135.85 -1386.95c-8.77,-89.53 61.57,-167.07 151.5,-167.07l2480.57 0c89.93,0 160.26,77.54 151.5,167.07l-135.89 1386.95z"/>
  <path class="fil18" d="M3669.52 5259.45c22.36,-55.71 76.81,-95.66 141.39,-95.66l2480.56 0c64.58,0 119.06,39.99 141.37,95.66l10.12 -103.32c8.77,-89.5 -61.55,-167.08 -151.5,-167.08l-2480.53 0c-89.93,0 -160.27,77.58 -151.5,167.08l10.09 103.32z"/>
  <path class="fil0" d="M6600.96 3818.3l0 -249.99 -157.97 0c-14.63,-65.77 -40.53,-127.3 -75.61,-182.45l111.74 -111.73 -176.78 -176.76 -111.73 111.73c-55.13,-35.07 -116.66,-60.98 -182.45,-75.6l0 -157.98 -249.99 0 0 157.98c-65.77,14.63 -127.3,40.52 -182.43,75.6l-111.74 -111.74 -176.76 176.78 111.73 111.73c-35.08,55.13 -60.99,116.66 -75.6,182.45l-157.98 0 0 249.99 157.98 0c14.61,65.79 40.52,127.31 75.6,182.45l-111.73 111.73 176.76 176.76 111.73 -111.73c55.14,35.08 116.67,60.99 182.45,75.6l0 157.98 249.99 0 0 -157.98c65.79,-14.63 127.31,-40.52 182.45,-75.6l111.73 111.73 176.78 -176.76 -111.74 -111.73c35.08,-55.13 60.99,-116.66 75.61,-182.45l157.97 0 0 0z"/>
  <path class="fil19" d="M6442.98 3818.32c-14.63,65.77 -40.51,127.31 -75.6,182.45l111.73 111.73 -176.75 176.75 -111.73 -111.73c-55.13,35.09 -116.67,60.98 -182.45,75.6l0 157.99 -125 0 0 -1435.6 125 0 0 157.99c65.77,14.63 127.31,40.51 182.45,75.6l111.73 -111.73 176.75 176.76 -111.73 111.72c35.09,55.13 60.98,116.67 75.6,182.46l157.99 0 0 250 -157.99 0z"/>
  <circle class="fil4" cx="5883.17" cy="3693.31" r="406.74"/>
  <path class="fil20" d="M6290.42 6822.62l-2478.43 0c-77.18,0 -139.75,-62.57 -139.75,-139.75l0 0c0,-77.18 62.57,-139.75 139.75,-139.75l2478.43 0c77.18,0 139.75,62.57 139.75,139.75l0 0c0,77.21 -62.55,139.75 -139.75,139.75z"/>
  <path class="fil21" d="M6290.42 6682.87l-2478.43 0c-51.75,0 -96.92,-28.11 -121.07,-69.89 -11.88,20.55 -18.69,44.43 -18.69,69.89 0,77.18 62.57,139.75 139.75,139.75l2478.43 0c77.18,0 139.75,-62.57 139.75,-139.75 0,-25.46 -6.81,-49.31 -18.7,-69.89 -24.15,41.79 -69.32,69.89 -121.05,69.89z"/>
  <polygon class="fil21" points="3776.54,6351.69 3795.29,6543.12 6307.12,6543.12 6325.87,6351.69 "/>
 </g>
</svg>