<?xml version="1.0" encoding="UTF-8"?>
<!DOCTYPE svg PUBLIC "-//W3C//DTD SVG 1.1//EN" "http://www.w3.org/Graphics/SVG/1.1/DTD/svg11.dtd">
<!-- Creator: CorelDRAW 2018 (64-Bit) -->
<svg xmlns="http://www.w3.org/2000/svg" xml:space="preserve" width="71.638mm" height="71.638mm" version="1.1" style="shape-rendering:geometricPrecision; text-rendering:geometricPrecision; image-rendering:optimizeQuality; fill-rule:evenodd; clip-rule:evenodd" viewBox="0 0 2149.08 2149.08" xmlns:xlink="http://www.w3.org/1999/xlink">
 <defs>
  <style type="text/css">
   <![CDATA[
    .fil8 {fill:#FEFEFE}
    .fil5 {fill:#96989A}
    .fil6 {fill:#646567}
    .fil2 {fill:#2B2A28}
    .fil1 {fill:#D0941F}
    .fil4 {fill:#E6E7E8}
    .fil0 {fill:#EDAC1A}
    .fil7 {fill:white}
    .fil3 {fill:white}
   ]]>
  </style>
 </defs>
 <g id="Слой_x0020_1">
  <metadata id="CorelCorpID_0Corel-Layer"/>
  <circle class="fil0" cx="1074.54" cy="1074.54" r="1074.54"/>
  <polygon class="fil1" points="1459.44,1352.76 1076.68,1574.48 1377.15,1749 1767.3,1530.87 1767.33,1085.41 1459.76,909.39 "/>
  <polygon class="fil1" points="690.69,553.23 690.4,906.14 1075.81,687.81 1458.75,906.4 1459.58,553.23 1075.95,331.87 "/>
  <path class="fil1" d="M381.8 1529.32l389.24 220.14 301.02 -174.98c-121.23,-77.09 -256.38,-150.24 -382.4,-221.3l-0.15 -443.39 -307.75 177.05 0.04 442.47z"/>
  <polygon class="fil2" points="1459.44,1307.6 1076.68,1529.32 1377.15,1703.84 1767.3,1485.71 1767.33,1040.25 1459.76,864.23 "/>
  <polygon class="fil3" points="690.69,508.07 690.4,860.98 1075.81,642.64 1458.75,861.23 1459.58,508.07 1075.95,286.71 "/>
  <path class="fil2" d="M381.8 1484.16l389.24 220.14 301.02 -174.98c-121.23,-77.09 -256.38,-150.24 -382.4,-221.3l-0.15 -443.39 -307.75 177.05 0.04 442.47z"/>
  <polygon class="fil4" points="1031.28,935.59 783.73,1083.77 783.73,1142.88 1040.14,1089.62 "/>
  <polygon class="fil5" points="1117.79,935.59 1365.34,1083.77 1365.34,1142.88 1108.94,1089.62 "/>
  <polygon class="fil5" points="1040.61,1229.9 955.43,1285.98 955.43,1317.68 1045.99,1318.16 "/>
  <polygon class="fil6" points="1108.46,1229.9 1193.65,1285.98 1193.65,1317.68 1103.08,1318.16 "/>
  <path class="fil7" d="M1133.15 925.39l-23.92 392.28 -69.38 0 -23.92 -392.28c-1.15,-18.91 3.94,-37.67 14.5,-53.4l27.09 -40.34c8.12,-12.1 25.93,-12.1 34.05,0l27.09 40.34c10.55,15.73 15.65,34.49 14.5,53.4z"/>
  <path class="fil8" d="M1118.65 872l-27.09 -40.34c-4.19,-6.24 -10.95,-9.23 -17.63,-9.04l0 495.06 35.3 0 23.92 -392.28c1.15,-18.91 -3.94,-37.67 -14.5,-53.4z"/>
 </g>
</svg>