<?xml version="1.0" encoding="UTF-8"?>
<!DOCTYPE svg PUBLIC "-//W3C//DTD SVG 1.1//EN" "http://www.w3.org/Graphics/SVG/1.1/DTD/svg11.dtd">
<!-- Creator: CorelDRAW 2018 (64-Bit) -->
<svg xmlns="http://www.w3.org/2000/svg" xml:space="preserve" width="71.6381mm" height="71.6381mm" version="1.1" style="shape-rendering:geometricPrecision; text-rendering:geometricPrecision; image-rendering:optimizeQuality; fill-rule:evenodd; clip-rule:evenodd" viewBox="0 0 1056.27 1056.27" xmlns:xlink="http://www.w3.org/1999/xlink">
 <defs>
  <style type="text/css">
   <![CDATA[
    .str1 {stroke:#DD3583;stroke-width:11.06;stroke-miterlimit:22.9256}
    .str2 {stroke:#E76FBB;stroke-width:11.06;stroke-miterlimit:22.9256}
    .str0 {stroke:#FEB784;stroke-width:1.12;stroke-miterlimit:22.9256}
    .fil17 {fill:none}
    .fil15 {fill:#96989A}
    .fil1 {fill:#6C3577}
    .fil0 {fill:#813F8E}
    .fil6 {fill:#D18B5C}
    .fil2 {fill:#DD3583}
    .fil3 {fill:#E76FBB}
    .fil10 {fill:#E7AD27}
    .fil14 {fill:#EDAC1A}
    .fil8 {fill:#F7CB15}
    .fil13 {fill:#F8D500}
    .fil5 {fill:#FEB784}
    .fil7 {fill:#FEBB8C}
    .fil4 {fill:#FEC9A3}
    .fil9 {fill:#FEDE3A}
    .fil11 {fill:#FEE500}
    .fil12 {fill:#FFF335}
    .fil16 {fill:white}
   ]]>
  </style>
 </defs>
 <g id="Слой_x0020_1">
  <metadata id="CorelCorpID_0Corel-Layer"/>
  <circle class="fil0" cx="528.13" cy="528.13" r="528.13"/>
  <path class="fil1" d="M844.04 840.77l-77.84 -235.46c-13.54,-40.97 -51.83,-68.64 -94.98,-68.64l-97.67 0 0 -55.19c0.37,-0.17 0.74,-0.34 1.11,-0.51 0.81,-0.38 1.61,-0.76 2.41,-1.16 0.8,-0.39 1.59,-0.8 2.37,-1.22 0.39,-0.21 0.78,-0.41 1.18,-0.63 3.12,-1.69 6.15,-3.54 9.08,-5.52 0.37,-0.25 0.73,-0.5 1.09,-0.75 0.73,-0.5 1.45,-1.02 2.16,-1.53 2.14,-1.56 4.22,-3.2 6.24,-4.9 0.68,-0.57 1.34,-1.14 2,-1.73 18.47,-16.39 31.39,-38.9 35.58,-64.35 0.49,0.03 0.98,0.04 1.47,0.04l0 0 0 0c4.73,0 9.2,-1.11 13.17,-3.08 0.41,-0.2 0.83,-0.42 1.23,-0.65 1.1,-0.61 2.16,-1.3 3.17,-2.05 0.1,-0.07 0.19,-0.14 0.29,-0.22 2.99,-2.26 5.53,-5.07 7.48,-8.28 0.25,-0.41 0.49,-0.82 0.72,-1.24 0.46,-0.84 0.87,-1.7 1.25,-2.59 0.09,-0.22 0.18,-0.44 0.27,-0.67 1.33,-3.36 2.06,-7.03 2.06,-10.87l0 -17.79c0,-9.47 -4.44,-17.9 -11.35,-23.33 1.25,-1.24 2.02,-2.97 2.02,-4.86 0,-0.03 0,-0.05 0,-0.07 0,-0.08 -0,-0.16 -0,-0.24 -0,-0.05 -0,-0.09 -0.01,-0.14 -0.01,-0.06 -0.01,-0.12 -0.02,-0.18 -0,-0.05 -0.01,-0.09 -0.01,-0.14 -0.01,-0.06 -0.02,-0.12 -0.03,-0.18 -0.01,-0.05 -0.02,-0.09 -0.02,-0.13 -0.01,-0.06 -0.02,-0.11 -0.03,-0.17 -0.01,-0.05 -0.02,-0.1 -0.03,-0.14 -0.02,-0.07 -0.03,-0.14 -0.05,-0.2 -0.02,-0.08 -0.04,-0.15 -0.06,-0.23 -0.02,-0.05 -0.03,-0.1 -0.04,-0.14 -0.02,-0.05 -0.03,-0.1 -0.05,-0.15 -0.01,-0.05 -0.03,-0.1 -0.05,-0.14 -0.02,-0.05 -0.04,-0.1 -0.06,-0.15 -0.02,-0.05 -0.04,-0.09 -0.05,-0.14 -0.02,-0.05 -0.04,-0.1 -0.06,-0.15 -0.02,-0.04 -0.04,-0.08 -0.06,-0.12 -0.09,-0.19 -0.18,-0.37 -0.29,-0.56 -0.02,-0.04 -0.04,-0.07 -0.06,-0.1 -0.03,-0.05 -0.06,-0.09 -0.09,-0.14 -0.03,-0.04 -0.05,-0.08 -0.08,-0.12 -0.03,-0.04 -0.06,-0.09 -0.09,-0.13 -0.03,-0.04 -0.06,-0.09 -0.09,-0.13 -0.03,-0.04 -0.06,-0.08 -0.09,-0.12 -0,-0 -0,-0.01 -0.01,-0.01 0,0 0,0 0,0 -1.26,-1.65 -3.24,-2.72 -5.47,-2.72l-13.43 0 0 -1.63c0,-1.27 -0.03,-2.54 -0.07,-3.8l22.88 0c0.69,0 1.37,-0.04 2.05,-0.1 0.51,-0.05 1.01,-0.12 1.5,-0.21 0.49,-0.09 0.98,-0.19 1.46,-0.32 0.16,-0.04 0.32,-0.08 0.48,-0.13 0.79,-0.22 1.56,-0.5 2.31,-0.82 0.6,-0.25 1.19,-0.54 1.75,-0.84 1.42,-0.77 2.74,-1.71 3.92,-2.79 0.12,-0.11 0.24,-0.22 0.35,-0.33 3.83,-3.65 6.21,-8.8 6.21,-14.5 0,-0.03 0,-0.05 0,-0.07 0,-0.18 -0,-0.36 -0.01,-0.53 0,-0.07 -0,-0.14 -0.01,-0.21 -0,-0.13 -0.01,-0.27 -0.02,-0.4 -0,-0.08 -0.01,-0.15 -0.01,-0.23 -0.01,-0.16 -0.03,-0.32 -0.04,-0.48 -0,-0.04 -0,-0.08 -0.01,-0.12 -0.02,-0.19 -0.05,-0.39 -0.07,-0.59 -0,-0.06 -0.01,-0.11 -0.02,-0.17 -0.02,-0.15 -0.04,-0.3 -0.07,-0.44 -0.01,-0.06 -0.02,-0.12 -0.03,-0.18 -0.03,-0.17 -0.06,-0.34 -0.1,-0.51 -0,-0.03 -0.01,-0.05 -0.01,-0.08 -0.04,-0.19 -0.08,-0.39 -0.13,-0.58 -0.01,-0.05 -0.02,-0.09 -0.04,-0.14 -0.04,-0.16 -0.08,-0.32 -0.12,-0.47 -0.01,-0.04 -0.02,-0.08 -0.03,-0.12 -0.11,-0.4 -0.23,-0.79 -0.36,-1.19 0,-0.01 -0.01,-0.02 -0.01,-0.02 -0.06,-0.18 -0.13,-0.36 -0.2,-0.55 -0.01,-0.03 -0.02,-0.06 -0.04,-0.09 -0.22,-0.58 -0.47,-1.14 -0.75,-1.7 -0.01,-0.01 -0.02,-0.04 -0.03,-0.05 -0.09,-0.18 -0.18,-0.36 -0.28,-0.54 0,0 0,0 0,-0 -3.38,-6.29 -10.03,-10.58 -17.67,-10.58l-9.35 -0c0,-13.67 -2.31,-26.8 -6.56,-39.02 -0.1,-0.28 -0.19,-0.56 -0.3,-0.84 -0.4,-1.13 -0.82,-2.24 -1.25,-3.34 -0.12,-0.31 -0.24,-0.61 -0.36,-0.92 -0.41,-1.03 -0.84,-2.06 -1.28,-3.07 -0.14,-0.33 -0.29,-0.66 -0.43,-0.99 -2.72,-6.11 -5.93,-11.96 -9.6,-17.48 -0.29,-0.42 -0.57,-0.85 -0.86,-1.27 -0.51,-0.74 -1.02,-1.47 -1.53,-2.19 -0.32,-0.44 -0.64,-0.88 -0.96,-1.32 -1.16,-1.58 -2.37,-3.13 -3.61,-4.65 -0.43,-0.53 -0.87,-1.06 -1.32,-1.6 -0.31,-0.36 -0.62,-0.73 -0.93,-1.08 -2.18,-2.51 -4.45,-4.93 -6.83,-7.25 -0.71,-0.7 -1.43,-1.38 -2.16,-2.06 -0.67,-0.62 -1.35,-1.23 -2.03,-1.84 -1.26,-1.12 -2.55,-2.21 -3.86,-3.28 -0.82,-0.67 -1.65,-1.33 -2.49,-1.97 -0.17,-0.14 -0.35,-0.27 -0.53,-0.4 -0.44,-0.34 -0.89,-0.68 -1.35,-1.01 -0.6,-0.44 -1.21,-0.89 -1.82,-1.32 -0.55,-0.39 -1.1,-0.77 -1.65,-1.15 -0.63,-0.43 -1.26,-0.85 -1.89,-1.27 -1.6,-1.05 -3.21,-2.06 -4.86,-3.04 -0.41,-0.24 -0.82,-0.49 -1.24,-0.72 -2.9,-1.67 -5.89,-3.22 -8.94,-4.64 -0.43,-0.2 -0.87,-0.4 -1.31,-0.6 -0.75,-0.34 -1.49,-0.66 -2.25,-0.99 -0.58,-0.25 -1.16,-0.49 -1.74,-0.73 -0.77,-0.32 -1.54,-0.62 -2.32,-0.92 -0.25,-0.1 -0.5,-0.19 -0.75,-0.28 -0,-0.05 -0,-0.11 -0.01,-0.16 -0,-0.03 -0,-0.06 -0,-0.1 -0.02,-0.25 -0.04,-0.5 -0.07,-0.75 0,-0.01 -0,-0.03 -0,-0.05 -0.03,-0.23 -0.06,-0.46 -0.09,-0.69 -0.01,-0.04 -0.01,-0.08 -0.02,-0.11 -0.08,-0.5 -0.17,-0.99 -0.29,-1.47l-0.01 -0.05c-0.06,-0.23 -0.12,-0.47 -0.18,-0.7 -0.01,-0.01 -0.01,-0.03 -0.01,-0.04 -0.13,-0.49 -0.29,-0.96 -0.46,-1.44 -0.01,-0.02 -0.02,-0.04 -0.03,-0.07 -0.17,-0.48 -0.36,-0.94 -0.57,-1.4 0,0 0,0 0,0l0 0c-3.17,-7.03 -10.22,-12.08 -18.66,-12.08l-52.28 0c-8.44,0 -15.49,5.05 -18.66,12.08l0 0c0,0 0,0 0,0 -0.2,0.46 -0.39,0.92 -0.57,1.4 -0.01,0.02 -0.01,0.05 -0.03,0.07 -0.17,0.47 -0.32,0.95 -0.46,1.44 -0,0.02 -0,0.03 -0.01,0.04 -0.06,0.23 -0.12,0.46 -0.18,0.69l-0.02 0.05c-0.11,0.48 -0.21,0.97 -0.29,1.47 -0,0.04 -0.01,0.08 -0.01,0.11 -0.04,0.24 -0.07,0.48 -0.1,0.73 0,0 0,0 0,0 -0.03,0.25 -0.05,0.51 -0.07,0.76 0,0.03 -0,0.07 -0,0.1 -0.01,0.06 -0.01,0.11 -0.01,0.16 -0.25,0.09 -0.5,0.19 -0.75,0.28 -0.78,0.3 -1.56,0.6 -2.32,0.92 -0.58,0.24 -1.16,0.48 -1.74,0.73 -0.75,0.32 -1.5,0.65 -2.25,0.99 -0.44,0.2 -0.88,0.4 -1.32,0.6 -3.05,1.42 -6.03,2.98 -8.94,4.64 -0.41,0.24 -0.83,0.48 -1.24,0.72 -1.65,0.97 -3.27,1.98 -4.86,3.04 -0.63,0.42 -1.26,0.84 -1.89,1.27 -0.55,0.38 -1.1,0.76 -1.65,1.15 -0.61,0.43 -1.22,0.88 -1.82,1.33 -0.46,0.33 -0.91,0.68 -1.35,1.01 -0.18,0.13 -0.35,0.27 -0.53,0.4 -0.84,0.64 -1.67,1.3 -2.49,1.97 -1.31,1.07 -2.6,2.16 -3.86,3.28 -0.69,0.61 -1.36,1.22 -2.03,1.84 -1.07,1 -2.13,2.01 -3.17,3.05 -0.34,0.34 -0.67,0.68 -1,1.02 -1.66,1.7 -3.27,3.45 -4.83,5.24 -0.31,0.36 -0.62,0.72 -0.93,1.09 -0.45,0.53 -0.88,1.06 -1.32,1.6 -1.24,1.52 -2.44,3.07 -3.61,4.65 -0.32,0.44 -0.64,0.88 -0.96,1.32 -0.52,0.73 -1.03,1.46 -1.53,2.19 -0.29,0.42 -0.57,0.85 -0.86,1.27 -3.67,5.52 -6.88,11.37 -9.6,17.48 -0.14,0.33 -0.29,0.66 -0.43,0.99 -0.44,1.02 -0.86,2.04 -1.28,3.07 -0.12,0.31 -0.24,0.61 -0.36,0.92 -0.43,1.1 -0.85,2.22 -1.25,3.34 -0.1,0.28 -0.19,0.56 -0.3,0.84 -4.24,12.22 -6.55,25.36 -6.55,39.02l-9.36 -0c-7.64,0 -14.29,4.28 -17.67,10.58 0,0 0,0 0,0.01 -0.1,0.18 -0.19,0.36 -0.28,0.54 -0.01,0.02 -0.02,0.04 -0.03,0.05 -0.27,0.55 -0.52,1.12 -0.75,1.7 -0.01,0.03 -0.02,0.06 -0.04,0.09 -0.07,0.18 -0.13,0.36 -0.2,0.55 -0,0.01 -0,0.01 -0.01,0.02 -0.13,0.39 -0.26,0.78 -0.36,1.19 -0.01,0.04 -0.02,0.08 -0.03,0.12 -0.04,0.15 -0.08,0.31 -0.12,0.47 -0.01,0.05 -0.03,0.09 -0.04,0.14 -0.05,0.19 -0.09,0.39 -0.13,0.58 -0.01,0.03 -0.01,0.05 -0.02,0.08 -0.04,0.17 -0.07,0.34 -0.1,0.51 -0.01,0.06 -0.02,0.12 -0.03,0.18 -0.03,0.15 -0.05,0.3 -0.07,0.44 -0.01,0.06 -0.02,0.11 -0.02,0.17 -0.03,0.19 -0.05,0.39 -0.07,0.59 -0,0.04 -0,0.08 -0.01,0.12 -0.01,0.16 -0.03,0.32 -0.04,0.48 -0.01,0.08 -0.01,0.15 -0.02,0.22 -0.01,0.13 -0.01,0.27 -0.02,0.4 0,0.07 -0,0.14 -0.01,0.21 -0,0.18 -0.01,0.35 -0.01,0.53 0,0.03 0,0.05 0,0.07 0,5.71 2.38,10.86 6.21,14.5 0.11,0.11 0.23,0.22 0.35,0.33 1.19,1.08 2.5,2.01 3.92,2.79 0.57,0.31 1.15,0.59 1.75,0.84 0.75,0.32 1.52,0.59 2.32,0.82 0.16,0.05 0.32,0.09 0.47,0.13 0.48,0.12 0.97,0.23 1.46,0.32 0.49,0.09 0.99,0.16 1.5,0.21 0.68,0.07 1.36,0.1 2.05,0.1l22.89 0c-0.04,1.26 -0.07,2.53 -0.07,3.8l0 1.63 -13.44 0c-2.23,0 -4.21,1.06 -5.47,2.72 0,0 0,0 0,0 -0,0 -0.01,0.01 -0.01,0.01 -0.03,0.04 -0.06,0.08 -0.09,0.12 -0.03,0.04 -0.06,0.08 -0.09,0.13 -0.03,0.04 -0.06,0.09 -0.09,0.13 -0.03,0.04 -0.05,0.08 -0.08,0.12 -0.03,0.05 -0.06,0.09 -0.09,0.14 -0.02,0.04 -0.04,0.07 -0.06,0.1 -0.1,0.18 -0.2,0.37 -0.29,0.56 -0.02,0.04 -0.04,0.08 -0.06,0.12 -0.02,0.05 -0.04,0.1 -0.06,0.15 -0.01,0.05 -0.04,0.09 -0.05,0.14 -0.02,0.05 -0.04,0.1 -0.05,0.15 -0.02,0.05 -0.03,0.1 -0.05,0.14 -0.01,0.05 -0.04,0.1 -0.05,0.15 -0.02,0.05 -0.03,0.1 -0.04,0.14 -0.02,0.08 -0.04,0.15 -0.06,0.23 -0.01,0.07 -0.04,0.14 -0.05,0.2 -0.01,0.05 -0.02,0.1 -0.03,0.14 -0.01,0.06 -0.02,0.11 -0.03,0.17 -0.01,0.05 -0.02,0.09 -0.02,0.13 -0.01,0.06 -0.02,0.12 -0.03,0.18 -0,0.05 -0.01,0.09 -0.02,0.14 -0,0.06 -0.01,0.12 -0.01,0.18 0,0.05 -0,0.09 -0.01,0.14 0,0.08 -0.01,0.16 -0.01,0.24 0,0.03 0,0.05 0,0.07 0,1.9 0.77,3.62 2.02,4.86 -6.91,5.43 -11.36,13.86 -11.36,23.33l0 17.79c0,3.84 0.73,7.5 2.06,10.87 0.09,0.22 0.18,0.45 0.28,0.67 0.37,0.89 0.79,1.75 1.25,2.59 0.23,0.42 0.46,0.83 0.72,1.24 1.95,3.21 4.5,6.02 7.49,8.28 0.1,0.07 0.19,0.14 0.29,0.22 1.01,0.75 2.07,1.43 3.17,2.05 0.4,0.23 0.82,0.45 1.23,0.65 3.97,1.97 8.44,3.08 13.17,3.08l0 0 0 0c0.49,0 0.98,-0.01 1.47,-0.04 6.05,36.76 30.31,67.39 63.21,82.3l0 55.19 -97.67 -0c-43.15,0 -81.44,27.67 -94.98,68.64l-77.84 235.47c-4.71,14.25 5.9,28.93 20.91,28.93l107.89 -0c-7.81,0 -14.63,4.24 -18.28,10.55l0 0c0,0 -0,0 -0,0 -0.11,0.19 -0.21,0.37 -0.31,0.56 -0.01,0.03 -0.03,0.06 -0.04,0.08 -0.08,0.15 -0.16,0.31 -0.24,0.47 -0.03,0.05 -0.05,0.1 -0.07,0.14 -0.08,0.15 -0.15,0.31 -0.23,0.47 -0.01,0.03 -0.03,0.06 -0.04,0.09 -0.09,0.19 -0.17,0.38 -0.25,0.58 -0.01,0.03 -0.02,0.06 -0.04,0.08 -0.07,0.17 -0.14,0.34 -0.2,0.51 -0.01,0.05 -0.04,0.09 -0.05,0.13 -0.06,0.16 -0.12,0.31 -0.17,0.47 -0.02,0.05 -0.03,0.09 -0.05,0.14 -0.07,0.19 -0.13,0.39 -0.19,0.59 -0.01,0.04 -0.02,0.07 -0.04,0.11 -0.05,0.16 -0.1,0.33 -0.14,0.49 -0.02,0.06 -0.04,0.12 -0.05,0.18 -0.04,0.14 -0.07,0.29 -0.11,0.43 -0.01,0.07 -0.03,0.13 -0.05,0.19 -0.05,0.19 -0.09,0.39 -0.13,0.59 -0.01,0.05 -0.02,0.09 -0.03,0.14 -0.03,0.16 -0.06,0.32 -0.09,0.49 -0.01,0.07 -0.03,0.14 -0.04,0.2 -0.03,0.15 -0.05,0.3 -0.07,0.44 -0.01,0.07 -0.02,0.13 -0.03,0.19 -0.03,0.2 -0.05,0.41 -0.07,0.61 -0,0.04 -0,0.08 -0.01,0.12 -0.02,0.17 -0.03,0.34 -0.04,0.52 -0,0.08 -0.01,0.15 -0.01,0.22 -0.01,0.14 -0.02,0.28 -0.02,0.42 -0,0.08 -0,0.16 -0.01,0.24 -0.01,0.18 -0.01,0.36 -0.01,0.55 0,0.03 0,0.05 0,0.08 0,3.4 0.8,6.61 2.23,9.45 0.1,0.2 0.2,0.4 0.31,0.6 0.29,0.54 0.61,1.06 0.95,1.57 0.13,0.2 0.26,0.39 0.4,0.59 0.39,0.55 0.81,1.08 1.25,1.6 0.11,0.13 0.22,0.26 0.34,0.38 0.23,0.25 0.46,0.5 0.7,0.73 0.12,0.12 0.24,0.23 0.36,0.35 1.92,1.83 4.18,3.3 6.68,4.31 0.09,0.04 0.18,0.07 0.27,0.11 2.36,0.91 4.92,1.41 7.6,1.41l374.21 -0.01c2.68,0 5.25,-0.5 7.6,-1.41 0.09,-0.04 0.18,-0.07 0.27,-0.11 2.5,-1.01 4.77,-2.48 6.68,-4.31 0.12,-0.12 0.24,-0.23 0.36,-0.35 0.24,-0.24 0.47,-0.48 0.7,-0.73 0.11,-0.12 0.22,-0.25 0.34,-0.38 0.45,-0.51 0.86,-1.04 1.25,-1.59 0.14,-0.19 0.27,-0.39 0.4,-0.59 0.34,-0.51 0.65,-1.03 0.95,-1.57 0.11,-0.2 0.21,-0.4 0.31,-0.6 1.43,-2.84 2.23,-6.05 2.23,-9.45 0,-0.03 0,-0.05 0,-0.08 0,-0.18 -0,-0.36 -0.01,-0.55 -0,-0.08 -0,-0.16 -0.01,-0.25 -0,-0.14 -0.02,-0.28 -0.02,-0.42 -0,-0.08 -0,-0.15 -0.01,-0.23 -0.01,-0.17 -0.03,-0.35 -0.04,-0.52 -0,-0.04 -0,-0.08 -0.01,-0.12 -0.02,-0.2 -0.05,-0.42 -0.07,-0.61 -0.01,-0.07 -0.01,-0.13 -0.03,-0.19 -0.02,-0.15 -0.04,-0.3 -0.07,-0.45 -0.01,-0.07 -0.02,-0.14 -0.04,-0.2 -0.03,-0.16 -0.06,-0.32 -0.09,-0.49 -0.01,-0.05 -0.02,-0.09 -0.03,-0.14 -0.04,-0.2 -0.08,-0.39 -0.13,-0.59 -0.01,-0.07 -0.03,-0.13 -0.05,-0.19 -0.04,-0.14 -0.07,-0.29 -0.11,-0.43 -0.02,-0.06 -0.04,-0.12 -0.05,-0.18 -0.05,-0.16 -0.09,-0.33 -0.14,-0.49 -0.01,-0.04 -0.02,-0.08 -0.03,-0.11 -0.06,-0.19 -0.12,-0.39 -0.19,-0.59 -0.02,-0.05 -0.03,-0.09 -0.05,-0.14 -0.06,-0.16 -0.11,-0.32 -0.17,-0.47 -0.02,-0.05 -0.04,-0.09 -0.05,-0.13 -0.07,-0.17 -0.13,-0.34 -0.2,-0.51 -0.01,-0.03 -0.02,-0.06 -0.04,-0.08 -0.08,-0.19 -0.16,-0.39 -0.25,-0.58 -0.02,-0.03 -0.03,-0.06 -0.05,-0.09 -0.07,-0.16 -0.15,-0.31 -0.22,-0.47 -0.03,-0.05 -0.05,-0.1 -0.07,-0.14 -0.08,-0.16 -0.16,-0.31 -0.24,-0.47 -0.01,-0.03 -0.03,-0.05 -0.04,-0.08 -0.1,-0.19 -0.2,-0.37 -0.31,-0.56 0,0 -0,-0 -0,-0l0 0c-3.65,-6.31 -10.47,-10.55 -18.28,-10.55l107.89 0c15.02,0 25.63,-14.68 20.92,-28.93z"/>
  <path class="fil2" d="M823.13 833.91l-589.99 0c-15.01,0 -25.62,-14.68 -20.91,-28.93l77.84 -235.46c13.54,-40.97 51.83,-68.64 94.98,-68.64l286.16 0c43.15,0 81.44,27.67 94.98,68.64l77.84 235.46c4.71,14.25 -5.9,28.93 -20.91,28.93z"/>
  <path class="fil3" d="M791.92 833.91l-527.58 0c-13.42,0 -22.91,-14.68 -18.69,-28.93l69.6 -235.46c12.11,-40.97 46.35,-68.64 84.94,-68.64l255.88 0c38.58,0 72.83,27.67 84.94,68.64l69.6 235.46c4.21,14.25 -5.28,28.93 -18.7,28.93z"/>
  <path class="fil2" d="M528.13 594.92c51.93,0 94.04,-42.1 94.04,-94.04l-188.08 0c0,51.93 42.11,94.04 94.04,94.04z"/>
  <path class="fil4" d="M528.13 574.28c40.53,0 73.4,-32.86 73.4,-73.4l-146.79 0c0,40.53 32.86,73.4 73.39,73.4z"/>
  <path class="fil5" d="M528.13 558.79c-35.23,0 -64.65,-24.81 -71.76,-57.91l-1.64 0c0,40.53 32.86,73.4 73.4,73.4 40.53,0 73.4,-32.86 73.4,-73.4l-1.64 0c-7.11,33.1 -36.54,57.91 -71.76,57.91z"/>
  <path class="fil4" d="M638.22 363.43l0 0c-16.37,0 -29.64,-13.27 -29.64,-29.64l0 -17.79c0,-16.37 13.27,-29.64 29.64,-29.64l0 0c16.37,0 29.64,13.27 29.64,29.64l0 17.79c0.01,16.37 -13.27,29.64 -29.64,29.64z"/>
  <path class="fil5 str0" d="M638.22 348.09c-16.37,0 -29.64,-13.27 -29.64,-29.64l0 15.34c0,16.37 13.27,29.64 29.64,29.64 16.37,0 29.64,-13.27 29.64,-29.64l0 -15.34c0.01,16.37 -13.27,29.64 -29.64,29.64z"/>
  <path class="fil4" d="M418.04 363.43l0 0c-16.37,0 -29.64,-13.27 -29.64,-29.64l0 -17.79c0,-16.37 13.27,-29.64 29.64,-29.64l0 0c16.37,0 29.64,13.27 29.64,29.64l0 17.79c-0,16.37 -13.27,29.64 -29.64,29.64z"/>
  <path class="fil5" d="M418.04 348.09c-16.37,0 -29.64,-13.27 -29.64,-29.64l0 15.34c0,16.37 13.27,29.64 29.64,29.64 16.37,0 29.64,-13.27 29.64,-29.64l0 -15.34c-0,16.37 -13.27,29.64 -29.64,29.64z"/>
  <rect class="fil4" x="482.72" y="442.16" width="90.83" height="58.71"/>
  <path class="fil6" d="M482.72 462.21c13.85,6.28 29.22,9.78 45.41,9.78 16.19,0 31.57,-3.5 45.41,-9.78l0 -20.04 -90.83 0 0 20.04 0 0z"/>
  <path class="fil4" d="M528.13 455.46l0 0c-60.81,0 -110.1,-49.29 -110.1,-110.09l0 -66.06c0,-60.8 49.29,-110.09 110.09,-110.09l0 -0c60.8,0 110.09,49.29 110.09,110.09l0 66.06c0,60.81 -49.28,110.09 -110.09,110.09z"/>
  <path class="fil6" d="M542.87 359.25l-31.83 0c-3.79,0 -6.86,-3.08 -6.86,-6.86 0,-3.79 3.07,-6.87 6.86,-6.87l31.83 0c3.79,0 6.86,3.08 6.86,6.87 0,3.79 -3.07,6.86 -6.86,6.86l0 0zm0 0z"/>
  <path class="fil7" d="M528.13 433.45c-60.81,0 -110.09,-49.29 -110.09,-110.09l0 22.02c0,60.8 49.29,110.09 110.09,110.09 60.8,0 110.09,-49.29 110.09,-110.09l0 -22.02c0,60.8 -49.28,110.09 -110.09,110.09z"/>
  <path class="fil3" d="M457 280.94l-51.83 0c-4.11,0 -7.44,3.08 -7.44,6.87l0 0c0,3.79 3.33,6.87 7.44,6.87l35.72 0 16.11 -13.74z"/>
  <path class="fil2" d="M405.18 286.36c-2.42,0 -4.56,-1.06 -5.92,-2.71 -0.95,1.16 -1.52,2.6 -1.52,4.16 0,3.79 3.33,6.87 7.44,6.87l35.72 0 10.78 -8.32 -46.5 0 0 0z"/>
  <path class="fil3" d="M601.97 280.94l48.6 0c4.39,0 7.96,3.08 7.96,6.87l0 0c0,3.79 -3.57,6.87 -7.96,6.87l-38.22 0 -10.38 -13.74z"/>
  <path class="fil2" d="M650.97 286.36c2.45,0 4.64,-1.06 6.02,-2.71 0.97,1.16 1.54,2.6 1.54,4.16 0,3.79 -3.39,6.87 -7.57,6.87l-36.33 0 -5.97 -8.32 42.31 0 0 0z"/>
  <path class="fil8" d="M661.05 235.43l-265.82 0c-11.07,0 -20.04,8.97 -20.04,20.04l0 0c0,11.07 8.97,20.04 20.04,20.04l265.82 0c11.07,0 20.04,-8.97 20.04,-20.04l0 0c0,-11.07 -8.97,-20.04 -20.04,-20.04z"/>
  <path class="fil9" d="M619.5 235.43l-182.72 0c-9.31,0 -16.86,7.55 -16.86,16.86l0 6.37c0,9.31 7.55,16.86 16.86,16.86l182.72 -0c9.31,0 16.86,-7.55 16.86,-16.86l0 -6.37c0,-9.31 -7.55,-16.86 -16.86,-16.86z"/>
  <path class="fil10" d="M661.05 255.48l-265.83 0c-7.42,0 -13.9,-4.03 -17.36,-10.02 -1.71,2.95 -2.68,6.37 -2.68,10.02 0,11.07 8.97,20.04 20.04,20.04l265.83 0c11.07,0 20.04,-8.97 20.04,-20.04 0,-3.65 -0.98,-7.07 -2.68,-10.02 -3.46,5.99 -9.94,10.02 -17.36,10.02z"/>
  <path class="fil10" d="M532.82 116.56l-9.37 0c-65.65,0 -118.87,53.22 -118.87,118.87l0 0 247.11 0 0 0c0,-65.65 -53.22,-118.87 -118.87,-118.87z"/>
  <path class="fil8" d="M528.13 116.56l0 0c-46.59,0 -84.36,37.77 -84.36,84.36l0 34.51 168.72 -0 0 -34.51c0,-46.59 -37.77,-84.36 -84.36,-84.36z"/>
  <path class="fil9" d="M523.45 133.82l9.37 0c59.79,0 109.27,44.14 117.62,101.61l1.25 0c0,-65.65 -53.22,-118.87 -118.87,-118.87l-9.37 0c-65.65,0 -118.87,53.22 -118.87,118.87l1.25 0c8.36,-57.47 57.84,-101.61 117.62,-101.61z"/>
  <path class="fil9" d="M542.21 204.76l-28.16 0c-9.71,0 -18.08,-6.83 -20.03,-16.34l-12.06 -58.8c-2.6,-12.68 7.09,-24.56 20.03,-24.56l52.28 0c12.95,0 22.63,11.88 20.03,24.56l-12.06 58.8c-1.95,9.51 -10.32,16.34 -20.03,16.34z"/>
  <path class="fil10" d="M562.25 169.24c-1.95,9.51 -10.32,16.34 -20.03,16.34l-28.16 0c-9.71,0 -18.08,-6.83 -20.03,-16.34l-10.69 -52.11c-1.69,3.75 -2.28,8.07 -1.37,12.48l12.06 58.8c1.95,9.51 10.32,16.34 20.03,16.34l28.16 0c9.71,0 18.08,-6.83 20.03,-16.34l12.06 -58.8c0.91,-4.41 0.32,-8.73 -1.37,-12.48l-10.69 52.11z"/>
  <path class="fil11" d="M717.76 833.91l-379.25 0 -20.51 -209.41c-1.32,-13.52 9.29,-25.23 22.87,-25.23l374.53 0c13.58,0 24.2,11.71 22.87,25.23l-20.52 209.41z"/>
  <path class="fil12" d="M319.52 640.1c3.37,-8.41 11.6,-14.44 21.35,-14.44l374.53 0c9.75,0 17.98,6.04 21.35,14.44l1.53 -15.6c1.32,-13.51 -9.29,-25.23 -22.87,-25.23l-374.52 0c-13.58,0 -24.2,11.71 -22.87,25.23l1.52 15.6z"/>
  <path class="fil13" d="M715.24 876.11l-374.21 0c-11.65,0 -21.1,-9.45 -21.1,-21.1l0 0c0,-11.65 9.45,-21.1 21.1,-21.1l374.21 0c11.65,0 21.1,9.45 21.1,21.1l0 0c0,11.66 -9.44,21.1 -21.1,21.1z"/>
  <path class="fil14" d="M715.24 855.01l-374.21 0c-7.81,0 -14.63,-4.24 -18.28,-10.55 -1.79,3.1 -2.82,6.71 -2.82,10.55 0,11.65 9.45,21.1 21.1,21.1l374.21 -0c11.65,0 21.1,-9.45 21.1,-21.1 0,-3.84 -1.03,-7.44 -2.82,-10.55 -3.64,6.31 -10.47,10.55 -18.28,10.55z"/>
  <polygon class="fil14" points="335.68,805.01 338.51,833.91 717.76,833.91 720.59,805.01 "/>
  <path class="fil2" d="M471.42 774.56c-2.82,0 -5.64,-1.07 -7.78,-3.23l-46.96 -46.96c-4.3,-4.3 -4.3,-11.27 0,-15.57l46.96 -46.95c4.3,-4.31 11.27,-4.31 15.57,0 4.3,4.3 4.3,11.27 0,15.57l-39.17 39.17 39.17 39.17c4.3,4.3 4.3,11.27 0,15.57 -2.15,2.16 -4.97,3.23 -7.79,3.23z"/>
  <path class="fil2" d="M584.85 774.56c-2.82,0 -5.64,-1.07 -7.79,-3.23 -4.3,-4.3 -4.3,-11.27 0,-15.57l39.17 -39.17 -39.17 -39.17c-4.3,-4.3 -4.3,-11.27 0,-15.57 4.3,-4.31 11.27,-4.31 15.57,0l46.96 46.96c4.3,4.3 4.3,11.27 0,15.57l-46.96 46.95c-2.15,2.15 -4.96,3.22 -7.78,3.22z"/>
  <path class="fil2" d="M504.27 774.56c-1.68,0 -3.38,-0.38 -4.98,-1.2 -5.42,-2.76 -7.58,-9.38 -4.83,-14.8l47.71 -93.9c2.76,-5.42 9.38,-7.58 14.81,-4.83 5.42,2.76 7.58,9.38 4.83,14.81l-47.71 93.9c-1.94,3.81 -5.81,6.02 -9.83,6.02z"/>
  <path class="fil15" d="M495.02 316.37c0,7.06 -5.73,12.79 -12.79,12.79 -7.06,0 -12.79,-5.73 -12.79,-12.79 0,-7.06 5.73,-12.79 12.79,-12.79 7.06,0 12.79,5.73 12.79,12.79zm0 0z"/>
  <path class="fil16" d="M492.41 314.11c0,3.03 -2.45,5.48 -5.48,5.48 -3.03,0 -5.48,-2.45 -5.48,-5.48 0,-3.03 2.45,-5.48 5.48,-5.48 3.03,0 5.48,2.46 5.48,5.48zm0 0z"/>
  <path class="fil15" d="M586.6 316.37c0,7.06 -5.72,12.78 -12.78,12.78 -7.06,0 -12.79,-5.73 -12.79,-12.78 0,-7.06 5.73,-12.79 12.79,-12.79 7.06,0 12.78,5.73 12.78,12.79zm0 0z"/>
  <path class="fil16" d="M584.62 314.11c0,3.03 -2.45,5.48 -5.48,5.48 -3.03,0 -5.48,-2.45 -5.48,-5.48 0,-3.03 2.45,-5.48 5.48,-5.48 3.03,0 5.48,2.45 5.48,5.48zm0 0z"/>
  <path class="fil6" d="M528.02 404.86c-11.75,0 -23.49,-2.94 -34.2,-8.83 -3.02,-1.66 -4.12,-5.45 -2.46,-8.47 1.66,-3.02 5.46,-4.12 8.47,-2.46 17.65,9.71 38.73,9.71 56.38,0 3.02,-1.66 6.82,-0.56 8.48,2.46 1.66,3.02 0.56,6.82 -2.46,8.47 -10.71,5.89 -22.45,8.83 -34.2,8.83l0 0zm0 0z"/>
  <circle class="fil17 str1" cx="477.42" cy="318.18" r="34.06"/>
  <circle class="fil17 str2" cx="477.42" cy="318.18" r="40.58"/>
  <circle class="fil17 str1" cx="579.64" cy="318.2" r="34.08"/>
  <circle class="fil17 str2" cx="579.64" cy="318.2" r="40.6"/>
  <rect class="fil2" x="505.52" y="294.68" width="46.33" height="10.85"/>
 </g>
</svg>