<?xml version="1.0" encoding="UTF-8"?>
<!DOCTYPE svg PUBLIC "-//W3C//DTD SVG 1.1//EN" "http://www.w3.org/Graphics/SVG/1.1/DTD/svg11.dtd">
<!-- Creator: CorelDRAW 2018 (64-Bit) -->
<svg xmlns="http://www.w3.org/2000/svg" xml:space="preserve" width="87.1187mm" height="71.638mm" version="1.1" style="shape-rendering:geometricPrecision; text-rendering:geometricPrecision; image-rendering:optimizeQuality; fill-rule:evenodd; clip-rule:evenodd" viewBox="0 0 1410.06 1159.5" xmlns:xlink="http://www.w3.org/1999/xlink">
 <defs>
  <style type="text/css">
   <![CDATA[
    .fil6 {fill:#7CFF40}
    .fil7 {fill:#813F8E}
    .fil2 {fill:#813F8E}
    .fil1 {fill:#D25922}
    .fil0 {fill:#E06E37}
    .fil3 {fill:#EDAC1A}
    .fil4 {fill:#FEE500}
    .fil5 {fill:white}
    .fil8 {fill:#813F8E;fill-rule:nonzero}
   ]]>
  </style>
 </defs>
 <g id="Слой_x0020_1">
  <metadata id="CorelCorpID_0Corel-Layer"/>
  <g id="_1552252362416">
   <path class="fil0" d="M1159.5 579.75c0,-320.19 -259.56,-579.75 -579.75,-579.75 -320.19,0 -579.75,259.56 -579.75,579.75 0,320.19 259.56,579.75 579.75,579.75 320.19,0 579.75,-259.56 579.75,-579.75z"/>
   <path class="fil1" d="M327.71 297.07l504.08 0c59.63,0.06 107.96,48.39 108.02,108.02l0 414.07c-0.06,59.63 -48.39,107.96 -108.02,108.02l-504.08 0c-59.63,-0.06 -107.96,-48.39 -108.02,-108.02l0 -414.07c0.06,-59.63 48.39,-107.96 108.02,-108.02z"/>
   <path class="fil2" d="M831.79 264.7l-504.08 0c-59.63,0.06 -107.96,48.39 -108.02,108.02l0 414.07c0.06,59.63 48.39,107.96 108.02,108.02l504.08 0c59.63,-0.06 107.96,-48.39 108.02,-108.02l0 -414.07c-0.06,-59.63 -48.39,-107.96 -108.02,-108.02z"/>
   <path class="fil3" d="M831.79 264.7l-504.08 0c-59.63,0.06 -107.96,48.39 -108.02,108.02l0 414.07c0.06,59.63 48.39,107.96 108.02,108.02l504.08 0c59.63,-0.06 107.96,-48.39 108.02,-108.02l0 -414.07c-0.06,-59.63 -48.39,-107.96 -108.02,-108.02zm-576.1 144.02l648.11 0 0 378.06 -0 0c0,39.77 -32.24,72.01 -72.01,72.01l-504.08 0c-39.77,0 -72.01,-32.24 -72.01,-72.01l0 -378.06zm648.11 -36.01l-648.11 0c0,-39.77 32.24,-72.01 72.01,-72.01l504.08 0c39.77,0 72.01,32.24 72.01,72.01z"/>
   <polygon class="fil4" points="309.7,354.71 399.72,354.71 399.72,318.71 309.7,318.71 "/>
   <polygon class="fil4" points="435.73,354.71 471.73,354.71 471.73,318.71 435.73,318.71 "/>
   <polygon class="fil4" points="507.74,354.71 543.74,354.71 543.74,318.71 507.74,318.71 "/>
   <path class="fil5" d="M392.52 477.13l-21.6 -28.81 -72.01 54.01c-1.36,1.02 -2.58,2.24 -3.6,3.6 -5.97,7.96 -4.35,19.24 3.6,25.2l72.01 54.01 21.6 -28.8 -52.8 -39.61 52.8 -39.6z"/>
   <path class="fil5" d="M518.54 502.34l-72.01 -54.01 -21.6 28.81 52.8 39.61 -52.8 39.61 21.6 28.81 72.01 -54.01c1.37,-1.02 2.58,-2.24 3.6,-3.6 5.97,-7.96 4.35,-19.24 -3.6,-25.21z"/>
   <path class="fil5" d="M734.58 639.16l-21.6 -28.81 -72.01 54.01c-1.36,1.02 -2.58,2.24 -3.6,3.6 -5.97,7.96 -4.35,19.24 3.6,25.2l72.01 54.01 21.6 -28.81 -52.8 -39.61 52.8 -39.6z"/>
   <path class="fil5" d="M860.6 664.37l-72.01 -54.01 -21.6 28.81 52.8 39.61 -52.8 39.6 21.6 28.81 72.01 -54.01c1.36,-1.02 2.58,-2.24 3.6,-3.6 5.96,-7.96 4.35,-19.24 -3.6,-25.21z"/>
   <polygon class="fil5" points="561.75,498.74 669.76,498.74 669.76,462.73 561.75,462.73 "/>
   <polygon class="fil5" points="705.77,498.74 741.78,498.74 741.78,462.73 705.77,462.73 "/>
   <polygon class="fil5" points="777.78,498.74 813.79,498.74 813.79,462.73 777.78,462.73 "/>
   <polygon class="fil5" points="705.77,570.75 813.79,570.75 813.79,534.74 705.77,534.74 "/>
   <polygon class="fil5" points="633.76,570.75 669.76,570.75 669.76,534.74 633.76,534.74 "/>
   <polygon class="fil5" points="561.75,570.75 597.75,570.75 597.75,534.74 561.75,534.74 "/>
   <polygon class="fil6" points="345.71,660.76 453.73,660.76 453.73,624.76 345.71,624.76 "/>
   <polygon class="fil6" points="489.73,660.76 525.74,660.76 525.74,624.76 489.73,624.76 "/>
   <polygon class="fil6" points="561.75,660.76 597.75,660.76 597.75,624.76 561.75,624.76 "/>
   <polygon class="fil6" points="489.73,732.78 597.75,732.78 597.75,696.77 489.73,696.77 "/>
   <polygon class="fil6" points="417.72,732.78 453.73,732.78 453.73,696.77 417.72,696.77 "/>
   <polygon class="fil6" points="345.71,732.78 381.72,732.78 381.72,696.77 345.71,696.77 "/>
   <polygon class="fil5" points="345.71,804.79 795.79,804.79 795.79,768.78 345.71,768.78 "/>
   <g>
    <path class="fil7" d="M1050.34 42.75l198.71 0c88.56,0 161.02,72.46 161.02,161.02l0 0c0,88.56 -72.46,161.02 -161.02,161.02l-198.71 0c-88.56,0 -161.02,-72.46 -161.02,-161.02l0 -0c0,-88.56 72.46,-161.02 161.02,-161.02z"/>
    <path class="fil4" d="M1050.34 31.58l198.71 0c88.56,0 161.02,72.46 161.02,161.02l0 0c0,88.56 -72.46,161.02 -161.02,161.02l-198.71 0c-88.56,0 -161.02,-72.46 -161.02,-161.02l0 -0c0,-88.56 72.46,-161.02 161.02,-161.02z"/>
    <path class="fil8" d="M999.19 238.38c-8.32,0 -15.82,-1.81 -22.51,-5.42 -6.69,-3.62 -11.94,-8.63 -15.75,-15.04 -3.81,-6.41 -5.72,-13.59 -5.72,-21.52 0,-7.93 1.91,-15.1 5.72,-21.52 3.81,-6.41 9.06,-11.43 15.75,-15.04 6.69,-3.62 14.19,-5.42 22.51,-5.42 8.32,0 15.82,1.81 22.51,5.42 6.69,3.61 11.93,8.61 15.74,14.99 3.81,6.38 5.72,13.57 5.72,21.58 0,8.01 -1.91,15.2 -5.72,21.58 -3.81,6.38 -9.06,11.37 -15.74,14.99 -6.69,3.62 -14.19,5.42 -22.51,5.42zm0 -13.3c5.44,0 10.34,-1.22 14.69,-3.67 4.35,-2.45 7.78,-5.87 10.26,-10.26 2.49,-4.39 3.73,-9.31 3.73,-14.75 0,-5.44 -1.24,-10.36 -3.73,-14.75 -2.49,-4.39 -5.91,-7.81 -10.26,-10.26 -4.35,-2.45 -9.25,-3.67 -14.69,-3.67 -5.44,0 -10.34,1.23 -14.69,3.67 -4.35,2.45 -7.77,5.87 -10.26,10.26 -2.49,4.39 -3.73,9.31 -3.73,14.75 0,5.44 1.24,10.36 3.73,14.75 2.49,4.39 5.91,7.81 10.26,10.26 4.35,2.45 9.25,3.67 14.69,3.67zm94 -50.85c7.85,0 14.15,2.29 18.89,6.88 4.74,4.59 7.11,11.39 7.11,20.41l0 35.69 -14.58 0 0 -33.82c0,-5.44 -1.28,-9.54 -3.85,-12.3 -2.57,-2.76 -6.22,-4.14 -10.96,-4.14 -5.37,0 -9.6,1.61 -12.71,4.84 -3.11,3.23 -4.67,7.87 -4.67,13.94l0 31.49 -14.58 0 0 -62.28 13.88 0 0 8.05c2.41,-2.88 5.44,-5.05 9.1,-6.53 3.65,-1.48 7.78,-2.22 12.36,-2.22zm44.55 -23.56l14.58 0 0 86.54 -14.58 0 0 -86.54zm33.7 24.26l14.58 0 0 62.28 -14.58 0 0 -62.28zm7.35 -10.26c-2.64,0 -4.86,-0.84 -6.65,-2.51 -1.79,-1.67 -2.68,-3.75 -2.68,-6.24 0,-2.49 0.89,-4.57 2.68,-6.24 1.79,-1.67 4,-2.51 6.65,-2.51 2.64,0 4.86,0.8 6.65,2.39 1.79,1.59 2.68,3.59 2.68,6 0,2.57 -0.87,4.72 -2.62,6.47 -1.75,1.75 -3.98,2.62 -6.71,2.62zm61.69 9.56c7.85,0 14.15,2.29 18.89,6.88 4.74,4.59 7.11,11.39 7.11,20.41l0 35.69 -14.58 0 0 -33.82c0,-5.44 -1.28,-9.54 -3.85,-12.3 -2.57,-2.76 -6.22,-4.14 -10.96,-4.14 -5.37,0 -9.6,1.61 -12.71,4.84 -3.11,3.23 -4.67,7.87 -4.67,13.94l0 31.49 -14.58 0 0 -62.28 13.88 0 0 8.05c2.41,-2.88 5.44,-5.05 9.1,-6.53 3.65,-1.48 7.78,-2.22 12.36,-2.22zm103.68 32.19c0,1.01 -0.08,2.45 -0.23,4.32l-48.87 0c0.85,4.59 3.09,8.22 6.71,10.9 3.62,2.68 8.11,4.02 13.47,4.02 6.84,0 12.48,-2.26 16.91,-6.77l7.81 8.98c-2.8,3.34 -6.34,5.87 -10.61,7.58 -4.28,1.71 -9.1,2.57 -14.46,2.57 -6.84,0 -12.87,-1.36 -18.08,-4.08 -5.21,-2.72 -9.23,-6.51 -12.07,-11.37 -2.84,-4.86 -4.26,-10.36 -4.26,-16.5 0,-6.06 1.38,-11.53 4.14,-16.38 2.76,-4.86 6.59,-8.65 11.49,-11.37 4.9,-2.72 10.42,-4.08 16.56,-4.08 6.06,0 11.49,1.34 16.27,4.02 4.78,2.68 8.51,6.45 11.2,11.31 2.68,4.86 4.02,10.48 4.02,16.85zm-31.49 -20.52c-4.66,0 -8.61,1.38 -11.84,4.14 -3.23,2.76 -5.19,6.43 -5.89,11.02l35.34 0c-0.62,-4.51 -2.53,-8.16 -5.72,-10.96 -3.19,-2.8 -7.15,-4.2 -11.9,-4.2z"/>
   </g>
  </g>
 </g>
</svg>