<?xml version="1.0" encoding="UTF-8"?>
<!DOCTYPE svg PUBLIC "-//W3C//DTD SVG 1.1//EN" "http://www.w3.org/Graphics/SVG/1.1/DTD/svg11.dtd">
<!-- Creator: CorelDRAW 2018 (64-Bit) -->
<svg xmlns="http://www.w3.org/2000/svg" xml:space="preserve" width="71.638mm" height="71.638mm" version="1.1" style="shape-rendering:geometricPrecision; text-rendering:geometricPrecision; image-rendering:optimizeQuality; fill-rule:evenodd; clip-rule:evenodd" viewBox="0 0 1006.81 1006.81" xmlns:xlink="http://www.w3.org/1999/xlink">
 <defs>
  <style type="text/css">
   <![CDATA[
    .fil3 {fill:#4E5660}
    .fil5 {fill:#6A96D7}
    .fil7 {fill:#7ACEFA}
    .fil2 {fill:#8EAFE2}
    .fil6 {fill:#A3DEFE}
    .fil1 {fill:#D25922}
    .fil0 {fill:#E06E37}
    .fil9 {fill:#EFD176}
    .fil4 {fill:#F7EF87}
    .fil10 {fill:#FCF2D0}
    .fil8 {fill:white}
   ]]>
  </style>
 </defs>
 <g id="Слой_x0020_1">
  <metadata id="CorelCorpID_0Corel-Layer"/>
  <circle class="fil0" cx="503.41" cy="503.41" r="503.41"/>
  <path class="fil1" d="M439.19 857.81c-16.73,0 -31.11,-12.61 -32.95,-29.62 -3.73,-34.52 -2.9,-72.44 2.46,-112.88 -12.38,-14.38 -19.86,-33.08 -19.86,-53.54l0 -10.31c-30.85,1.48 -57.98,8.14 -75.48,12.44 -4.03,0.99 -7.51,1.85 -10.61,2.53 -2.42,0.54 -4.85,0.8 -7.23,0.8l0 0c-15.21,0 -28.92,-10.53 -32.36,-25.99 -3.98,-17.89 7.31,-35.61 25.19,-39.59 2.38,-0.53 5.53,-1.3 9.17,-2.2 21.17,-5.2 58.96,-14.48 102.46,-14.65 1.68,-2.17 3.52,-4.21 5.51,-6.1 -34.34,-13.09 -58.74,-46.32 -58.74,-85.25l0 -0.64 -26.57 0c-7.16,0 -12.97,-5.81 -12.97,-12.97l0 -14.61 -41.92 0c-0.49,0 -0.97,-0.03 -1.43,-0.1 -4.26,14.36 -17.56,24.84 -33.31,24.84 -19.19,0 -34.74,-15.55 -34.74,-34.74 0,-19.19 15.55,-34.74 34.74,-34.74 15.74,0 29.04,10.48 33.3,24.84 0.47,-0.07 0.95,-0.1 1.44,-0.1l41.92 0 0 -14.61c0,-7.16 5.81,-12.97 12.97,-12.97l26.57 0 0 -0.65c0,-50.37 40.84,-91.21 91.21,-91.21l103.03 0 0 -26.57c0,-7.17 -5.81,-12.97 -12.97,-12.97l-14.61 0 0 -0 0 -41.92c0,-0.45 -0.03,-0.9 -0.09,-1.33 0.88,-0.26 1.76,-0.55 2.63,-0.89 17.94,-6.83 26.94,-26.91 20.11,-44.85 -6.83,-17.94 -26.91,-26.95 -44.85,-20.12 -17.94,6.83 -26.94,26.91 -20.11,44.85 3.98,10.46 12.46,17.88 22.4,20.9 -0.07,0.47 -0.1,0.95 -0.1,1.44l0 41.92 -14.61 0c-7.17,0 -12.97,5.81 -12.97,12.97l0 26.57 75.18 0 27.85 0c50.37,0 91.21,40.84 91.21,91.21l0 0.65 26.57 0c7.16,0 12.97,5.81 12.97,12.97l0 14.61 41.92 0c0.49,0 0.97,0.04 1.44,0.1 4.26,-14.36 17.56,-24.84 33.3,-24.84 19.19,0 34.74,15.55 34.74,34.74 0,19.19 -15.55,34.74 -34.74,34.74 -15.74,0 -29.04,-10.48 -33.31,-24.84 -0.47,0.07 -0.95,0.1 -1.43,0.1l0 0 -41.92 0 0 14.61c0,7.17 -5.81,12.97 -12.97,12.97l-26.57 0 0 0.64c0,38.94 -24.4,72.17 -58.74,85.25 1.99,1.89 3.83,3.93 5.51,6.11 43.5,0.18 81.3,9.44 102.46,14.64 3.65,0.9 6.8,1.67 9.17,2.2 17.89,3.98 29.17,21.7 25.19,39.59 -3.44,15.47 -17.15,25.99 -32.36,25.99 -2.38,0 -4.8,-0.26 -7.23,-0.8 -3.1,-0.69 -6.58,-1.54 -10.61,-2.53 -17.51,-4.3 -44.63,-10.96 -75.48,-12.44l0 10.31c0,20.46 -7.48,39.17 -19.86,53.55 5.36,40.44 6.19,78.36 2.46,112.87 -1.84,17.01 -16.22,29.62 -32.95,29.62 -1.19,0 -2.4,-0.07 -3.61,-0.2 -18.22,-1.97 -31.39,-18.34 -29.42,-36.55 2.56,-23.67 2.55,-49.53 -0.02,-77.18l-62.33 0c-2.57,27.64 -2.58,53.5 -0.02,77.18 1.97,18.22 -11.2,34.59 -29.42,36.55 -1.21,0.13 -2.42,0.2 -3.61,0.2z"/>
  <path class="fil2" d="M439.19 831.97c-16.73,0 -31.11,-12.61 -32.95,-29.62 -4.08,-37.72 -2.71,-79.51 4.07,-124.22 2.75,-18.12 19.66,-30.57 37.78,-27.83 18.12,2.75 30.58,19.66 27.83,37.78 -5.92,39.05 -7.16,75.1 -3.7,107.14 1.97,18.22 -11.2,34.59 -29.42,36.55 -1.21,0.13 -2.42,0.2 -3.61,0.2z"/>
  <path class="fil2" d="M295.52 641.4c-15.21,0 -28.92,-10.53 -32.36,-25.99 -3.98,-17.89 7.31,-35.61 25.19,-39.59 2.38,-0.53 5.53,-1.3 9.17,-2.2 23.2,-5.7 66.4,-16.31 115.18,-14.43 18.31,0.7 32.59,16.12 31.88,34.43 -0.7,18.31 -16.1,32.63 -34.43,31.88 -39.48,-1.51 -75.36,7.3 -96.8,12.57 -4.03,0.99 -7.51,1.85 -10.61,2.53 -2.42,0.54 -4.85,0.8 -7.23,0.8l0 0z"/>
  <path class="fil2" d="M567.62 831.97c-1.19,0 -2.39,-0.07 -3.61,-0.2 -18.22,-1.97 -31.39,-18.34 -29.42,-36.55 3.46,-32.04 2.22,-68.08 -3.7,-107.14 -2.75,-18.12 9.71,-35.03 27.83,-37.78 18.13,-2.74 35.03,9.71 37.78,27.83 6.78,44.7 8.15,86.49 4.07,124.22 -1.84,17.01 -16.22,29.62 -32.95,29.62z"/>
  <path class="fil2" d="M711.29 641.4c-2.38,0 -4.8,-0.26 -7.23,-0.8 -3.1,-0.69 -6.58,-1.54 -10.61,-2.53 -21.44,-5.27 -57.33,-14.08 -96.8,-12.57 -18.3,0.74 -33.73,-13.57 -34.43,-31.88 -0.7,-18.31 13.57,-33.73 31.88,-34.43 48.79,-1.86 91.98,8.73 115.18,14.43 3.65,0.9 6.8,1.67 9.17,2.2 17.89,3.97 29.17,21.7 25.2,39.59 -3.44,15.47 -17.15,25.99 -32.36,25.99z"/>
  <path class="fil3" d="M307.21 439.38l-41.92 0c-5.52,0 -10.01,-4.48 -10.01,-10.01 0,-5.53 4.48,-10.01 10.01,-10.01l41.92 0c5.52,0 10.01,4.48 10.01,10 0,5.53 -4.48,10.01 -10.01,10.01l0 0z"/>
  <circle class="fil4" cx="230.56" cy="429.38" r="34.74"/>
  <path class="fil2" d="M346.75 391.79l-26.57 0c-7.16,0 -12.97,5.81 -12.97,12.97l0 49.23c0,7.17 5.81,12.97 12.97,12.97l26.57 0 0 -75.18z"/>
  <path class="fil3" d="M503.41 270.39c-5.53,0 -10.01,-4.48 -10.01,-10.01l0 -41.92c0,-5.53 4.48,-10 10.01,-10 5.52,0 10,4.48 10,10l0 41.92c0,5.53 -4.48,10.01 -10,10.01z"/>
  <circle class="fil4" transform="matrix(0.335415 -0.127709 0.127709 0.335415 503.588 183.773)" r="96.84"/>
  <path class="fil2" d="M541 299.93l0 -26.57c0,-7.17 -5.81,-12.97 -12.97,-12.97l-49.23 -0c-7.17,0 -12.97,5.81 -12.97,12.97l0 26.57 75.18 0z"/>
  <path class="fil3" d="M741.52 439.38l-41.92 0c-5.52,0 -10.01,-4.48 -10.01,-10.01 0,-5.53 4.48,-10.01 10.01,-10.01l41.92 0c5.52,0 10.01,4.48 10.01,10 0,5.53 -4.48,10.01 -10.01,10.01l0 0z"/>
  <circle class="fil4" cx="776.26" cy="429.38" r="34.74"/>
  <path class="fil2" d="M660.06 391.79l26.57 0c7.16,0 12.97,5.81 12.97,12.97l0 49.23c0,7.17 -5.81,12.97 -12.97,12.97l-26.57 0 0 -75.18z"/>
  <path class="fil5" d="M448.09 650.3c-18.12,-2.73 -35.03,9.71 -37.78,27.83 -2.37,15.61 -4.06,30.86 -5.11,45.72 18.23,13.67 40.84,21.8 65.31,21.9 0.57,-18.34 2.37,-37.6 5.41,-57.66 2.75,-18.12 -9.71,-35.03 -27.83,-37.78z"/>
  <path class="fil5" d="M596.5 678.14c-2.75,-18.12 -19.65,-30.58 -37.78,-27.83 -18.12,2.75 -30.58,19.66 -27.83,37.78 3.04,20.06 4.84,39.32 5.41,57.66 24.47,-0.1 47.08,-8.22 65.31,-21.9 -1.05,-14.86 -2.74,-30.1 -5.11,-45.72z"/>
  <path class="fil5" d="M594.11 559.18c-18.31,0.7 -32.59,16.12 -31.88,34.43 0.7,18.31 16.13,32.62 34.43,31.88 17.34,-0.66 33.99,0.66 49.03,2.81l0 -36.63c0,-10.95 -2.19,-21.39 -6.13,-30.93 -14.22,-1.44 -29.53,-2.17 -45.45,-1.56l0 0z"/>
  <path class="fil5" d="M412.7 559.18c-15.91,-0.61 -31.22,0.11 -45.44,1.55 -3.95,9.55 -6.14,19.99 -6.14,30.94l0 36.63c15.04,-2.14 31.69,-3.47 49.03,-2.81 18.34,0.74 33.73,-13.57 34.43,-31.88 0.7,-18.31 -13.57,-33.73 -31.88,-34.43l0 -0z"/>
  <path class="fil6" d="M564.42 538.12l-122.02 0c-29.58,0 -53.56,23.98 -53.56,53.56l0 44.26c0,45.35 36.76,82.11 82.11,82.11l64.92 0c45.35,0 82.11,-36.76 82.11,-82.11l0 -44.26c-0,-29.58 -23.98,-53.56 -53.56,-53.56l0 0z"/>
  <path class="fil7" d="M463.16 593.71c-0.19,-3.9 2.91,-7.17 6.82,-7.17l98.87 0c16.7,0 32.59,-3.48 47.03,-9.71 -6.44,-22.35 -27.03,-38.7 -51.45,-38.7l-122.02 -0c-29.58,0 -53.56,23.98 -53.56,53.56l0 44.26c0,45.35 36.76,82.11 82.11,82.11l31.44 0c-25.99,-29.27 -36.89,-77.23 -39.23,-124.34z"/>
  <path class="fil6" d="M568.85 299.93l-130.88 0c-50.37,0 -91.21,40.84 -91.21,91.21l0 76.47c0,50.38 40.84,91.21 91.21,91.21l130.88 0c50.37,0 91.21,-40.84 91.21,-91.21l0 -76.47c0,-50.37 -40.84,-91.21 -91.21,-91.21z"/>
  <path class="fil7" d="M413.95 303.15c-38.72,10.54 -67.2,45.93 -67.2,87.99l0 76.47c0,50.38 40.84,91.21 91.21,91.21l2.6 0c-37.83,-57.5 -48.58,-170.28 -26.61,-255.68l0 0z"/>
  <ellipse class="fil8" cx="396.47" cy="455.54" rx="39.46" ry="31.42"/>
  <ellipse class="fil8" cx="610.34" cy="455.54" rx="39.46" ry="31.42"/>
  <path class="fil3" d="M419.47 434.2c-5.53,0 -10.01,-4.48 -10.01,-10.01l0 -13.93c0,-5.53 4.48,-10.01 10.01,-10.01 5.52,0 10,4.48 10,10.01l0 13.93c0,5.53 -4.48,10.01 -10,10.01z"/>
  <path class="fil3" d="M587.35 434.2c-5.53,0 -10.01,-4.48 -10.01,-10.01l0 -13.93c0,-5.53 4.48,-10.01 10.01,-10.01 5.52,0 10,4.48 10,10.01l0 13.93c0,5.53 -4.48,10.01 -10,10.01z"/>
  <path class="fil3" d="M503.41 444.9c-11.37,0 -22.19,-4.92 -29.67,-13.51 -3.63,-4.16 -3.2,-10.48 0.97,-14.11 4.16,-3.63 10.48,-3.2 14.12,0.97 3.68,4.23 9,6.65 14.59,6.65 5.59,0 10.9,-2.42 14.59,-6.65 3.63,-4.16 9.95,-4.6 14.12,-0.97 4.16,3.63 4.6,9.95 0.97,14.11 -7.48,8.59 -18.3,13.51 -29.67,13.51z"/>
  <path class="fil4" d="M473.4 686.68l60.01 0c8.44,0 15.28,-6.84 15.28,-15.28l0 -60.01c0,-8.44 -6.84,-15.28 -15.28,-15.28l-60.01 0c-8.44,0 -15.28,6.84 -15.28,15.28l0 60.01c0,8.44 6.84,15.28 15.28,15.28z"/>
  <path class="fil9" d="M482.68 686.68c-11.37,-25.36 -17.15,-56.14 -19.16,-86.92 -3.29,2.8 -5.39,6.97 -5.39,11.63l0 60.01c0,8.44 6.84,15.28 15.28,15.28l9.28 0z"/>
  <path class="fil2" d="M503.41 641.4l45.28 0 0 -30c0,-8.44 -6.84,-15.28 -15.28,-15.28l-30 0 0 45.28z"/>
  <path class="fil8" d="M458.13 641.4l45.28 0 0 -45.28 -30.01 0c-8.44,0 -15.28,6.84 -15.28,15.28l0 30z"/>
  <path class="fil10" d="M463.51 599.76c-3.29,2.8 -5.39,6.97 -5.39,11.63l0 30 10.67 0c-2.66,-13.54 -4.36,-27.59 -5.28,-41.64l0 -0z"/>
  <path class="fil3" d="M503.41 686.68l30 0c8.44,0 15.28,-6.84 15.28,-15.28l0 -30 -45.28 0 0 45.28z"/>
 </g>
</svg>