<?xml version="1.0" encoding="UTF-8"?>
<!-- Generator: Adobe Illustrator 23.0.6, SVG Export Plug-In . SVG Version: 6.00 Build 0)  -->
<svg version="1.1" id="Слой_1" xmlns="http://www.w3.org/2000/svg" xmlns:xlink="http://www.w3.org/1999/xlink" x="0px" y="0px" viewBox="0 0 203.1 203.1" style="enable-background:new 0 0 203.1 203.1;" xml:space="preserve">
<style type="text/css">
	.st0{fill-rule:evenodd;clip-rule:evenodd;fill:#DB3B50;}
	.st1{fill-rule:evenodd;clip-rule:evenodd;fill:#CD273A;}
	.st2{fill-rule:evenodd;clip-rule:evenodd;fill:#F4F4F4;}
	.st3{fill-rule:evenodd;clip-rule:evenodd;fill:#E3E3E3;}
	.st4{fill-rule:evenodd;clip-rule:evenodd;fill:#84DEEA;}
	.st5{fill-rule:evenodd;clip-rule:evenodd;fill:#3D4751;}
	.st6{fill-rule:evenodd;clip-rule:evenodd;fill:#546370;}
	.st7{fill-rule:evenodd;clip-rule:evenodd;fill:#D1D1D1;}
	.st8{fill-rule:evenodd;clip-rule:evenodd;fill:#495560;}
	.st9{fill-rule:evenodd;clip-rule:evenodd;fill:#59C2E8;}
	.st10{fill-rule:evenodd;clip-rule:evenodd;fill:#34B6E2;}
	.st11{clip-path:url(#SVGID_2_);}
	.st12{fill:none;}
</style>
<circle class="st0" cx="101.5" cy="101.5" r="101.5"/>
<path class="st1" d="M166.4,130.2c0.1-0.3,0.1-0.7,0.1-1v-11.4v0l0,0c0,0,0-0.1,0-0.1v0c0,0,0-0.1,0-0.1l0,0c0,0,0-0.1,0-0.1v0  c0,0,0-0.1,0-0.1l0,0c0,0,0-0.1,0-0.1v0c0,0,0-0.1,0-0.1v0c0,0,0-0.1,0-0.1l0,0c0,0,0-0.1,0-0.1v0c0,0,0-0.1,0-0.1v0  c0,0,0-0.1,0-0.1v0l0-0.1l0,0c0,0,0-0.1,0-0.1l0,0c0,0,0-0.1,0-0.1v0c0,0,0-0.1,0-0.1l0,0l0-0.1l0,0l0-0.1l0,0c0,0,0-0.1,0-0.1v0  c0,0,0-0.1,0-0.1l0-0.1l0-0.1l0,0c0,0,0-0.1,0-0.1v0c0,0,0-0.1,0-0.1l0,0c0,0,0-0.1,0-0.1l-0.1-0.1l0,0l-0.1-0.1l0,0l-0.1-0.1  l-0.1-0.1l0,0l-0.1-0.1v0l-0.1-0.1l0,0c0,0,0,0-0.1-0.1l-0.1-0.1l-0.1-0.1l0,0c0,0,0,0-0.1-0.1l-0.1-0.1l0,0l-0.1-0.1l-0.1-0.1l0,0  c0,0,0,0-0.1-0.1l0,0c0,0,0,0-0.1-0.1c0,0,0,0-0.1-0.1s0,0-0.1-0.1l-0.1-0.1l0,0l-0.1,0l-0.1,0l-0.1,0l-0.1,0c0,0-0.1,0-0.1,0  c0,0-0.1,0-0.1,0l-0.1,0l-0.1,0c0,0-0.1,0-0.1,0c0,0-0.1,0-0.1,0c0,0-0.1,0-0.1,0c0,0-0.1,0-0.1,0l-0.1,0c0,0-0.1,0-0.1,0  c0,0-0.1,0-0.1,0l-0.1,0c0,0-0.1,0-0.1,0c0,0-0.1,0-0.1,0c0,0-0.1,0-0.1,0c0,0-0.1,0-0.1,0c0,0-0.1,0-0.1,0c0,0-0.1,0-0.1,0  c0,0-0.1,0-0.1,0h0h-11.4c-2.1,0-3.8,1.7-3.8,3.8v0c0,2.1,1.7,3.8,3.8,3.8h7.6v5.9c-1.4,0.1-2.6,0.5-3.7,1.3  c-4.8,4-7.1,18.8-2.5,21.3c4.7,2.5,15.8-7.5,16.5-13.7C169.5,134.1,168.3,131.8,166.4,130.2L166.4,130.2z"/>
<path class="st1" d="M40.1,106.6l5.1,8.2h10.9c2.4,0,4.4,2,4.4,4.4v0c0,2.4-2,4.4-4.4,4.4H43.6c-1.7,0.3-3.5-0.4-4.5-2L32.6,111  c-2.1,0.3-4.1,0-5.6-1.3c-5-4.1-7.4-19.5-2.6-22.1c4.9-2.6,16.4,7.8,17.1,14.2C41.7,103.5,41.1,105.2,40.1,106.6L40.1,106.6z"/>
<path class="st1" d="M65.8,135.2c-7.5,0-12.9-6.1-12.9-13.6c0-7.5,6.1-13.6,13.6-13.6c3.9,0,7.5,1.7,10,4.4  c3.2-3.6,7.3-6.6,11.8-8.6c-10-4-17.9-12.4-21.2-22.8c-1.6,0-3.3,0-4.9,0c-1.8,0-3.3-1.5-3.3-3.3c0-5.3,0-10.7,0-16  c0-1.8,1.5-3.3,3.3-3.3c1.6,0,3.3,0,4.9,0c4.7-14.8,18.6-25.5,35-25.5c16.3,0,30.1,10.6,34.9,25.3c1.4,0,2.8,0,4.2,0  c1.8,0,3.3,1.5,3.3,3.3c0,5.3,0,10.7,0,16c0,1.8-1.5,3.3-3.3,3.3c-1.4,0-2.7,0-4.1,0c-3.3,10.5-11.2,18.9-21.3,23  c4.4,1.9,8.3,4.7,11.5,8.2c2.5-2.5,5.9-4,9.6-4c7.5,0,13.6,6.1,13.6,13.6c0,7.5-4.9,13.5-12.4,13.5c-0.2,0-0.4,0-0.7,0  C136,190.3,74.5,204.6,65.8,135.2z"/>
<path class="st2" d="M163.7,114.1L163.7,114.1c0,3.5-5.6,6.2-12.5,6.2l-9.3-0.1c-6.9,0-12.5-2.9-12.5-6.3l0,0  c0-3.5,5.6-6.2,12.5-6.2l9.3,0.1C158.1,107.8,163.7,110.6,163.7,114.1z"/>
<path class="st2" d="M75.7,115.9L75.7,115.9c0,3.5-5.4,6.3-12.1,6.3l-9.1,0.1c-6.7,0-12.1-2.7-12.2-6.2l0,0c0-3.5,5.4-6.3,12.1-6.3  l9.1-0.1C70.2,109.7,75.6,112.4,75.7,115.9z"/>
<path class="st2" d="M79.9,116.6c0,7.5-6.1,13.6-13.6,13.6s-13.6-6.1-13.6-13.6c0-7.5,6.1-13.6,13.6-13.6S79.9,109.1,79.9,116.6z"/>
<path class="st3" d="M55.9,116.6c0-7,5.2-12.7,12-13.5c-0.5-0.1-1-0.1-1.6-0.1c-7.5,0-13.6,6.1-13.6,13.6c0,7.5,6.1,13.6,13.6,13.6  c0.5,0,1.1,0,1.6-0.1C61.1,129.3,55.9,123.6,55.9,116.6L55.9,116.6z"/>
<path class="st4" d="M73.6,116c0,4-3.3,7.3-7.3,7.3c-4,0-7.3-3.3-7.3-7.3c0-4,3.3-7.3,7.3-7.3C70.4,108.7,73.6,111.9,73.6,116z"/>
<path class="st2" d="M150.2,116.6c0,7.5-6.1,13.6-13.6,13.6c-7.5,0-13.6-6.1-13.6-13.6c0-7.5,6.1-13.6,13.6-13.6  C144.2,103.1,150.2,109.1,150.2,116.6z"/>
<path class="st3" d="M126.2,116.6c0-7,5.2-12.7,12-13.5c-0.5-0.1-1-0.1-1.6-0.1c-7.5,0-13.6,6.1-13.6,13.6c0,7.5,6.1,13.6,13.6,13.6  c0.5,0,1.1,0,1.6-0.1C131.5,129.3,126.2,123.6,126.2,116.6L126.2,116.6z"/>
<path class="st4" d="M144,116c0,4-3.3,7.3-7.3,7.3c-4,0-7.3-3.3-7.3-7.3c0-4,3.3-7.3,7.3-7.3C140.7,108.7,144,111.9,144,116z"/>
<path class="st5" d="M81.2,76.1H61.9c-1.8,0-3.3-1.5-3.3-3.3v-16c0-1.8,1.5-3.3,3.3-3.3h19.3V76.1z"/>
<path class="st6" d="M121.7,75.9h19.3c1.8,0,3.3-1.5,3.3-3.3v-16c0-1.8-1.5-3.3-3.3-3.3h-19.3V75.9z"/>
<path class="st3" d="M67.6,129.8C67.8,111.1,83,96,101.8,96c18.6,0,33.7,14.8,34.2,33.2c0.7,26.1-21.4,49.2-34.2,49.2  C89,178.4,67.3,154.7,67.6,129.8L67.6,129.8z"/>
<path class="st7" d="M67.6,129.8C67.8,111.1,83,96,101.8,96c1.8,0,3.6,0.1,5.4,0.4c-17.4,1.5-31,16-31.2,33.7  c-0.2,22.1,16.8,43.2,29.6,47.7c-1.3,0.4-2.6,0.6-3.7,0.6C89,178.4,67.3,154.7,67.6,129.8L67.6,129.8z"/>
<path class="st8" d="M77.7,105.9h7c2,0,3.6,1.6,3.6,3.6c0,2,1.6,3.6,3.6,3.6h19.8c2,0,3.6-1.6,3.6-3.6c0-2,1.6-3.6,3.6-3.6h7  c-6.2-6.1-14.7-9.9-24.1-9.9C92.4,96,83.9,99.8,77.7,105.9L77.7,105.9z"/>
<path class="st5" d="M86,106.1c5.3-5.3,12.3-8.9,20.1-9.9c-1.4-0.2-2.8-0.3-4.2-0.3c-9.4,0-17.9,3.8-24.1,9.9h7  C85.2,105.9,85.6,106,86,106.1z"/>
<path class="st2" d="M138.5,64.8c0,20.3-16.5,36.7-36.7,36.7c-20.3,0-36.7-16.5-36.7-36.7c0-20.3,16.5-36.7,36.7-36.7  C122.1,28,138.5,44.5,138.5,64.8z"/>
<path class="st3" d="M73.5,64.8c0-18.9,14.2-34.4,32.5-36.5c-1.4-0.2-2.8-0.2-4.2-0.2c-20.3,0-36.7,16.5-36.7,36.7  c0,20.3,16.5,36.7,36.7,36.7c1.4,0,2.8-0.1,4.2-0.2C87.7,99.2,73.5,83.6,73.5,64.8L73.5,64.8z"/>
<path class="st9" d="M110.3,117.2c0,4.7-3.8,8.5-8.5,8.5c-4.7,0-8.5-3.8-8.5-8.5c0-4.7,3.8-8.5,8.5-8.5  C106.5,108.7,110.3,112.5,110.3,117.2z"/>
<path class="st10" d="M99.7,117.2c0-3.6,2.2-6.6,5.3-7.9c-1-0.4-2.1-0.6-3.2-0.6c-4.7,0-8.5,3.8-8.5,8.5c0,4.7,3.8,8.5,8.5,8.5  c1.1,0,2.2-0.2,3.2-0.6C101.9,123.8,99.7,120.7,99.7,117.2L99.7,117.2L99.7,117.2z"/>
<path class="st6" d="M101.8,40.9c13.2,0,23.8,10.7,23.8,23.8c0,13.2-10.7,23.8-23.8,23.8C88.6,88.6,78,77.9,78,64.8  C78,51.6,88.6,40.9,101.8,40.9z"/>
<g>
	<defs>
		<circle id="SVGID_1_" cx="101.8" cy="64.8" r="23.8"/>
	</defs>
	<clipPath id="SVGID_2_">
		<use xlink:href="#SVGID_1_" style="overflow:visible;"/>
	</clipPath>
	<g class="st11">
		<g id="_2230578083552">
			<path class="st8" d="M85.4,65.9c0-14.3,10.6-26.2,24.4-28.2c-1.4-0.2-2.9-0.3-4.4-0.3c-15.4,0.1-28,12.6-28.3,28     C76.9,76.9,83.6,87,93.3,91.6c1.2,0.6,2.6-0.1,2.9-1.4l0.4-1.6C89.8,83.4,85.4,75.2,85.4,65.9z"/>
		</g>
	</g>
</g>
<path class="st12" d="M101.8,40.9c13.2,0,23.8,10.7,23.8,23.8c0,13.2-10.7,23.8-23.8,23.8C88.6,88.6,78,77.9,78,64.8  C78,51.6,88.6,40.9,101.8,40.9z"/>
<path class="st9" d="M110.3,64.8c0,4.7-3.8,8.5-8.5,8.5c-4.7,0-8.5-3.8-8.5-8.5c0-4.7,3.8-8.5,8.5-8.5  C106.5,56.3,110.3,60.1,110.3,64.8z"/>
<path class="st10" d="M99.7,64.8c0-3.6,2.2-6.6,5.3-7.9c-1-0.4-2.1-0.6-3.2-0.6c-4.7,0-8.5,3.8-8.5,8.5c0,4.7,3.8,8.5,8.5,8.5  c1.1,0,2.2-0.2,3.2-0.6C101.9,71.4,99.7,68.3,99.7,64.8C99.7,64.8,99.7,64.8,99.7,64.8z"/>
<path class="st2" d="M160.6,111L160.6,111c2.1,0,3.8,3.1,3.8,6.9v5.2c0,3.8-1.7,6.9-3.8,6.9h0c-2.1,0-3.8-3.1-3.8-6.9V118  C156.8,114.1,158.5,111,160.6,111z"/>
<path class="st3" d="M150.7,147.2c-4.7-2.5-2.3-17.3,2.5-21.3c4.8-4,14.8,1.4,14,7.6C166.5,139.7,155.4,149.6,150.7,147.2  L150.7,147.2z"/>
<path class="st7" d="M155.7,124.7c5.1-1.1,12.1,3.6,11.5,8.8c-0.7,6.1-11.4,15.8-16.2,13.8c5.3-1.5,12.5-8.8,13.1-13.8  C164.5,129.3,160.1,125.5,155.7,124.7L155.7,124.7z"/>
<path class="st2" d="M34.6,100.9L34.6,100.9c2-1.3,5.6,0.7,7.9,4.4l3.1,5c2.3,3.7,2.5,7.8,0.5,9l0,0c-2,1.3-5.6-0.7-7.9-4.4l-3.1-5  C32.8,106.3,32.5,102.2,34.6,100.9z"/>
<path class="st3" d="M25.4,84.1c-4.9,2.6-2.4,18,2.6,22.1c5,4.1,15.3-1.5,14.6-7.9C41.7,91.9,30.2,81.5,25.4,84.1z"/>
<path class="st7" d="M30.6,107.5c5.3,1.1,12.5-3.7,11.9-9.2C41.8,92,30.7,81.9,25.7,84c5.5,1.5,13,9.2,13.5,14.3  C39.7,102.7,35.1,106.6,30.6,107.5z"/>
</svg>