<?xml version="1.0" encoding="UTF-8"?>
<!DOCTYPE svg PUBLIC "-//W3C//DTD SVG 1.1//EN" "http://www.w3.org/Graphics/SVG/1.1/DTD/svg11.dtd">
<!-- Creator: CorelDRAW 2018 (64-Bit) -->
<svg xmlns="http://www.w3.org/2000/svg" xml:space="preserve" width="71.638mm" height="71.638mm" version="1.1" style="shape-rendering:geometricPrecision; text-rendering:geometricPrecision; image-rendering:optimizeQuality; fill-rule:evenodd; clip-rule:evenodd" viewBox="0 0 2199.86 2199.86" xmlns:xlink="http://www.w3.org/1999/xlink">
 <defs>
  <style type="text/css">
   <![CDATA[
    .fil3 {fill:#022B3A}
    .fil1 {fill:#06465E}
    .fil6 {fill:#2284EC}
    .fil7 {fill:#27ADE5}
    .fil2 {fill:#D0941F}
    .fil4 {fill:#EAEAEA}
    .fil0 {fill:#EDAC1A}
    .fil5 {fill:white}
   ]]>
  </style>
 </defs>
 <g id="Слой_x0020_1">
  <metadata id="CorelCorpID_0Corel-Layer"/>
  <path class="fil0" d="M2199.86 1098.34l0 1.59c0,36.95 -1.85,73.52 -5.41,109.56 -8.08,81.77 -25.09,160.87 -50.1,236.36 -127.57,385.36 -462.45,676.33 -872.56,740.65 -54.61,8.55 -110.6,13.1 -167.57,13.32 -1.42,0.04 -2.88,0.04 -4.3,0.04 -10.05,0 -20.06,-0.13 -30.08,-0.39 -52.33,-1.42 -103.72,-6.45 -153.99,-14.95 -519.8,-87.56 -915.87,-539.87 -915.87,-1084.59 0,-607.45 492.47,-1099.93 1099.93,-1099.93 563.76,0 1028.48,424.16 1092.41,970.73 4.9,41.85 7.48,84.43 7.52,127.61l0 0z"/>
  <polygon class="fil1" points="981.53,776.92 981.53,1060.2 981.53,1084.84 981.53,1673.71 1217.07,1673.71 1217.07,1084.84 1217.07,1060.2 1217.07,776.92 "/>
  <path class="fil2" d="M978.91 895.61l0 119.4 -196.29 0c-64.09,0 -116.22,51.19 -117.73,114.92l-136.49 0c-13.41,-14.83 -32.8,-24.14 -54.36,-24.14 -21.56,0 -40.95,9.31 -54.36,24.14l-3.78 0 0 4.53c-9.5,12.36 -15.15,27.82 -15.15,44.62 0,16.79 5.65,32.26 15.15,44.62l0 115.24c-51.98,22.55 -88.43,74.36 -88.43,134.53 0,54.17 29.57,101.54 73.39,126.91l26.77 -61.83 10.29 -23.75c-11.52,-10.08 -18.84,-24.85 -18.84,-41.32 0,-30.31 24.66,-54.96 54.96,-54.96 30.31,0 54.96,24.65 54.96,54.96 0,16.47 -7.32,31.24 -18.84,41.32l10.28 23.75 26.77 61.83c43.82,-25.37 73.39,-72.73 73.39,-126.91 0,-63.32 -40.37,-117.39 -96.72,-137.83l0 -102.84c1.14,-1.06 2.24,-2.15 3.31,-3.27l137.65 0 0 178.08c0,65.05 52.73,117.77 117.77,117.77l196.29 0 0 117.52 -182.57 -0c-49.75,0 -90.08,40.33 -90.08,90.08 0,49.75 40.33,90.08 90.08,90.08l299.78 0 305.22 0c0.78,0 1.55,-0.01 2.33,-0.03 0.77,-0.02 1.54,-0.05 2.31,-0.09 0.77,-0.04 1.53,-0.09 2.29,-0.14 0.76,-0.06 1.53,-0.13 2.28,-0.2 0.76,-0.08 1.51,-0.16 2.26,-0.26 0.75,-0.1 1.5,-0.2 2.24,-0.32 0.75,-0.11 1.49,-0.23 2.23,-0.37 0.74,-0.13 1.48,-0.27 2.21,-0.42 0.73,-0.15 1.46,-0.31 2.19,-0.48 0.72,-0.17 1.45,-0.35 2.17,-0.53l0 0c0.72,-0.18 1.43,-0.38 2.15,-0.58 0.71,-0.2 1.42,-0.41 2.12,-0.63 0.71,-0.22 1.41,-0.45 2.11,-0.68 0.7,-0.24 1.39,-0.48 2.08,-0.73 0.69,-0.25 1.37,-0.52 2.05,-0.78l2.03 -0.83 0 0c0.67,-0.28 1.34,-0.58 2.01,-0.88 0.67,-0.3 1.32,-0.61 1.98,-0.92l0 0c0.66,-0.32 1.31,-0.64 1.95,-0.97l0 0c0.64,-0.33 1.29,-0.68 1.93,-1.02 0.64,-0.35 1.27,-0.7 1.9,-1.06 0.63,-0.36 1.26,-0.73 1.87,-1.11l0 0 1.84 -1.15c0.61,-0.39 1.21,-0.79 1.81,-1.19l1.78 -1.23c0.59,-0.42 1.17,-0.84 1.75,-1.28l0 0c0.58,-0.43 1.15,-0.87 1.72,-1.32 0.57,-0.45 1.13,-0.9 1.68,-1.36l0 0c0.56,-0.46 1.11,-0.92 1.65,-1.4 0.54,-0.47 1.09,-0.95 1.62,-1.43l0 0c0.53,-0.49 1.06,-0.98 1.58,-1.47 0.52,-0.5 1.04,-1 1.54,-1.51l0 0c0.51,-0.51 1.01,-1.02 1.51,-1.54l0 -0 1.47 -1.58 0 0c0.49,-0.53 0.96,-1.07 1.43,-1.62l0 0c0.47,-0.54 0.94,-1.09 1.39,-1.65l0 0c0.46,-0.56 0.91,-1.12 1.36,-1.69 0.45,-0.57 0.88,-1.14 1.31,-1.72l0 0c0.43,-0.58 0.86,-1.17 1.27,-1.75l0 0c0.42,-0.59 0.83,-1.18 1.23,-1.78l0 0c0.4,-0.6 0.8,-1.21 1.19,-1.81l0 0c0.39,-0.61 0.77,-1.22 1.15,-1.84l0 0 1.11 -1.87 0 -0c0.36,-0.63 0.72,-1.26 1.06,-1.9l0 0c0.35,-0.64 0.68,-1.28 1.02,-1.93l0 0c0.33,-0.65 0.65,-1.3 0.97,-1.96l0 0c0.32,-0.66 0.62,-1.31 0.92,-1.98l0 -0c0.3,-0.66 0.59,-1.34 0.88,-2.01l0 0c0.29,-0.68 0.56,-1.35 0.83,-2.03l0 -0c0.27,-0.68 0.53,-1.37 0.78,-2.05l0 0c0.25,-0.69 0.49,-1.39 0.73,-2.08l0 0c0.24,-0.7 0.46,-1.4 0.68,-2.1l0 -0c0.22,-0.7 0.43,-1.41 0.63,-2.12l0 -0c0.2,-0.71 0.4,-1.43 0.58,-2.15 0.18,-0.72 0.36,-1.44 0.53,-2.17l0 -0c0.17,-0.73 0.33,-1.46 0.47,-2.19l0 -0c0.15,-0.73 0.29,-1.47 0.42,-2.2l0 -0c0.13,-0.74 0.25,-1.48 0.37,-2.23l0 -0c0.11,-0.74 0.22,-1.49 0.31,-2.24l0 -0c0.1,-0.75 0.18,-1.5 0.26,-2.26 0.08,-0.76 0.14,-1.51 0.2,-2.28l0 -0c0.06,-0.76 0.11,-1.53 0.14,-2.29l0 -0c0.04,-0.77 0.07,-1.54 0.09,-2.31l0 -0c0.02,-0.77 0.02,-1.55 0.03,-2.32l0 -0c0,-0.78 -0.01,-1.55 -0.03,-2.32l-0 -0c-0.02,-0.77 -0.05,-1.54 -0.09,-2.31l0 -0c-0.04,-0.77 -0.09,-1.53 -0.14,-2.29l0 -0c-0.06,-0.76 -0.13,-1.52 -0.2,-2.28 -0.08,-0.76 -0.16,-1.51 -0.26,-2.26l0 -0c-0.1,-0.75 -0.2,-1.5 -0.31,-2.24l0 -0c-0.12,-0.74 -0.24,-1.49 -0.37,-2.22l-0 -0c-0.13,-0.74 -0.27,-1.47 -0.42,-2.2l-0 -0c-0.15,-0.73 -0.31,-1.46 -0.47,-2.19l-0 -0c-0.17,-0.73 -0.34,-1.45 -0.53,-2.16l0 -0c-0.18,-0.72 -0.38,-1.43 -0.58,-2.15l-0 -0c-0.2,-0.71 -0.41,-1.42 -0.63,-2.12l-0 -0c-0.22,-0.7 -0.45,-1.41 -0.68,-2.1l-0 -0c-0.23,-0.7 -0.48,-1.39 -0.73,-2.08l-0 0c-0.25,-0.69 -0.51,-1.38 -0.78,-2.06l-0 -0c-0.27,-0.68 -0.54,-1.36 -0.83,-2.03l-0 0c-0.29,-0.68 -0.57,-1.35 -0.88,-2.01l0 0c-0.3,-0.67 -0.61,-1.33 -0.92,-1.98l-0 0c-0.32,-0.65 -0.64,-1.31 -0.97,-1.95l-0 0c-0.33,-0.65 -0.67,-1.29 -1.02,-1.93l-0 -0c-0.34,-0.64 -0.7,-1.27 -1.06,-1.9l0 -0c-0.36,-0.63 -0.73,-1.25 -1.11,-1.87l-0 -0c-0.38,-0.62 -0.76,-1.23 -1.15,-1.84l-0 -0c-0.39,-0.61 -0.79,-1.21 -1.19,-1.81l-0 -0c-0.41,-0.6 -0.81,-1.19 -1.23,-1.78l-0 -0c-0.42,-0.59 -0.84,-1.17 -1.27,-1.75l-0 0c-0.43,-0.58 -0.87,-1.15 -1.31,-1.72l0 -0c-0.45,-0.57 -0.9,-1.13 -1.36,-1.68l-0 -0c-0.45,-0.56 -0.92,-1.11 -1.39,-1.65l-0 -0c-0.47,-0.54 -0.95,-1.08 -1.43,-1.61l0 -0c-0.49,-0.53 -0.98,-1.06 -1.47,-1.58l-0 -0c-0.5,-0.52 -1,-1.03 -1.51,-1.54l-0 -0c-0.51,-0.51 -1.03,-1.01 -1.54,-1.5l0 -0 -1.58 -1.47 -0 -0 -1.62 -1.43 0 -0c-0.54,-0.47 -1.09,-0.93 -1.65,-1.39l-0 -0 -1.68 -1.35 0 -0c-0.57,-0.45 -1.14,-0.88 -1.72,-1.31 -0.58,-0.43 -1.16,-0.86 -1.75,-1.27l0 -0c-2.35,-1.68 -4.79,-3.24 -7.31,-4.68l0 -0c-13.2,-7.6 -28.52,-11.94 -44.84,-11.94l0 0.01 -186.89 -0 0 -117.52 196.29 0c1.02,0 2.03,-0.01 3.04,-0.04 1.01,-0.03 2.02,-0.06 3.02,-0.12 1,-0.05 2,-0.11 3,-0.19 1,-0.08 1.99,-0.17 2.98,-0.27 0.99,-0.1 1.97,-0.21 2.96,-0.33 0.98,-0.13 1.96,-0.26 2.93,-0.41l0 0c0.97,-0.15 1.94,-0.31 2.91,-0.48 0.96,-0.17 1.93,-0.36 2.89,-0.55l0 0c0.96,-0.2 1.91,-0.4 2.86,-0.62l0 0c0.95,-0.22 1.89,-0.45 2.83,-0.69 0.94,-0.24 1.88,-0.49 2.81,-0.76 0.93,-0.26 1.86,-0.54 2.78,-0.83 0.92,-0.29 1.84,-0.58 2.75,-0.89 0.91,-0.31 1.82,-0.63 2.72,-0.96l0 0c1.8,-0.66 3.59,-1.36 5.35,-2.11l0 -0c0.88,-0.37 1.76,-0.76 2.62,-1.15l0 0c0.87,-0.39 1.73,-0.8 2.59,-1.21 0.86,-0.41 1.71,-0.84 2.55,-1.27l0 0c0.85,-0.44 1.68,-0.88 2.52,-1.33 0.84,-0.45 1.66,-0.92 2.48,-1.39l0 0c0.82,-0.47 1.64,-0.96 2.44,-1.45l0 0c0.81,-0.49 1.61,-0.99 2.41,-1.5 0.8,-0.51 1.59,-1.03 2.37,-1.56l0 -0c0.78,-0.53 1.56,-1.07 2.33,-1.61 0.77,-0.55 1.53,-1.11 2.29,-1.67l0 0c0.75,-0.57 1.5,-1.14 2.24,-1.72l0 -0c0.74,-0.58 1.47,-1.17 2.2,-1.77 1.45,-1.2 2.88,-2.43 4.27,-3.7 1.4,-1.27 2.76,-2.57 4.09,-3.9 1.33,-1.33 2.63,-2.7 3.9,-4.09 1.27,-1.39 2.5,-2.82 3.7,-4.27 0.6,-0.73 1.19,-1.46 1.77,-2.2l0 0c0.58,-0.74 1.15,-1.49 1.72,-2.24l0 -0c0.57,-0.76 1.12,-1.52 1.67,-2.29 0.55,-0.77 1.09,-1.54 1.61,-2.33l0 0c0.53,-0.78 1.05,-1.58 1.56,-2.37 0.51,-0.8 1.01,-1.6 1.5,-2.41l0 -0c0.49,-0.81 0.98,-1.62 1.45,-2.44l0 -0c0.47,-0.82 0.93,-1.65 1.39,-2.48 0.45,-0.84 0.89,-1.67 1.33,-2.52l0 -0c0.43,-0.84 0.86,-1.7 1.27,-2.56 0.41,-0.86 0.81,-1.72 1.21,-2.59l0 -0c0.39,-0.87 0.77,-1.74 1.15,-2.62l0 0c0.75,-1.76 1.45,-3.54 2.11,-5.35l0 0c0.33,-0.9 0.65,-1.81 0.96,-2.72 0.31,-0.91 0.6,-1.83 0.89,-2.75 0.29,-0.92 0.57,-1.85 0.83,-2.78 0.26,-0.93 0.52,-1.86 0.76,-2.81 0.24,-0.94 0.47,-1.89 0.69,-2.83l0 -0c0.22,-0.95 0.43,-1.9 0.62,-2.86l0 -0c0.2,-0.96 0.38,-1.92 0.55,-2.89 0.17,-0.97 0.33,-1.93 0.48,-2.91l0 -0c0.15,-0.97 0.29,-1.95 0.41,-2.93 0.13,-0.98 0.23,-1.97 0.33,-2.96 0.1,-0.99 0.19,-1.98 0.27,-2.98 0.08,-0.99 0.14,-2 0.19,-3 0.05,-1 0.09,-2.01 0.12,-3.02 0.02,-1.01 0.04,-2.02 0.04,-3.04l0 -232.56 231.9 -0 0 -171.95c62.85,-16.51 109.35,-73.81 109.35,-141.78 0,-54.17 -29.56,-101.54 -73.38,-126.9l-26.78 61.84 -10.28 23.75c11.52,10.08 18.84,24.85 18.84,41.32 0,30.31 -24.66,54.96 -54.96,54.96 -30.31,0 -54.96,-24.66 -54.96,-54.96 0,-16.47 7.32,-31.24 18.84,-41.32l-10.28 -23.75 -26.77 -61.84c-43.82,25.37 -73.39,72.73 -73.39,126.9 0,62.86 39.78,116.59 95.48,137.37l0 78.57 -156.9 0 0 1.13 -0.22 -0.41c-0.46,-0.87 -0.92,-1.73 -1.4,-2.58l-0.36 -0.64 -0.78 -1.35 -0.43 -0.73 -0.73 -1.22 -1.05 -1.68 -0.01 -0.02 -0.87 -1.35 -0.36 -0.54c-0.95,-1.44 -1.94,-2.86 -2.96,-4.26l-0.44 -0.6 -0.89 -1.19 -0.49 -0.64c-0.6,-0.79 -1.21,-1.57 -1.84,-2.34l-0.31 -0.38 -1 -1.22 -0.56 -0.66 -0.9 -1.06 -1.31 -1.48 -0.1 -0.1 -0.88 -0.97 -0.75 -0.81 -0.88 -0.93 -0.07 -0.08 -1.38 -1.41 -1.02 -1.01 -0.64 -0.63 -1.03 -0.99 -0.13 -0.12 -1.45 -1.34 -0.68 -0.61 -1.07 -0.95 -0.89 -0.77 -1.05 -0.89 -0.87 -0.72 -1.64 -1.32 -0.84 -0.66 -1.11 -0.85 -0.93 -0.7 -0.06 -0.05 -1.6 -1.16 -0.95 -0.67 -1.21 -0.84 -0.83 -0.56c-0.64,-0.42 -1.28,-0.85 -1.92,-1.27l-0.1 -0.06 -0.37 -0.23 -1.66 -1.04 -0.84 -0.51 -1.22 -0.72 -1.52 -0.88 -1.34 -0.75 -1 -0.54 -1.25 -0.66 -0.92 -0.48 -0.12 -0.06 -1.79 -0.89 -0.14 -0.07 -0.77 -0.37 -1.58 -0.73 -0.84 -0.38 -2.13 -0.93 -0.65 -0.27 -1.78 -0.73 -0.7 -0.28 -1.89 -0.72 -0.81 -0.3 -2.04 -0.72 -0.83 -0.28 -1.73 -0.56 -0.76 -0.24c-0.78,-0.24 -1.56,-0.47 -2.35,-0.7l-0.72 -0.2 -1.71 -0.46 -0.9 -0.23 -2.3 -0.56 -0.22 -0.05 -0.26 -0.06 -2.27 -0.49 -0.61 -0.13c-1.74,-0.35 -3.49,-0.66 -5.25,-0.94l-0.64 -0.1 -2.22 -0.31 -0.45 -0.06c-0.87,-0.11 -1.73,-0.2 -2.61,-0.29l-0.62 -0.06 -2.16 -0.19 -0.69 -0.06c-0.88,-0.07 -1.77,-0.12 -2.67,-0.17l-0.33 -0.01c-0.79,-0.04 -1.58,-0.07 -2.37,-0.1l-0.74 -0.02c-0.9,-0.02 -1.8,-0.03 -2.7,-0.03l-196.29 0 0 -119.4 196.29 0c1.02,0 2.03,-0.02 3.04,-0.04 1.01,-0.02 2.02,-0.06 3.02,-0.12 1,-0.05 2,-0.11 3,-0.19 1,-0.07 1.99,-0.17 2.98,-0.27 0.99,-0.1 1.97,-0.21 2.96,-0.33 0.98,-0.12 1.96,-0.26 2.93,-0.41l0 0c0.97,-0.15 1.94,-0.31 2.91,-0.48 0.96,-0.17 1.93,-0.36 2.89,-0.55l0 0c0.96,-0.2 1.91,-0.4 2.86,-0.62l0 0c0.95,-0.22 1.89,-0.45 2.83,-0.69 0.94,-0.24 1.88,-0.5 2.81,-0.76 0.93,-0.26 1.86,-0.54 2.78,-0.83 0.92,-0.29 1.84,-0.59 2.75,-0.89 0.91,-0.31 1.82,-0.63 2.72,-0.96l0 0c0.9,-0.33 1.79,-0.67 2.69,-1.02l0 0c0.89,-0.35 1.77,-0.72 2.66,-1.09 0.88,-0.37 1.75,-0.75 2.62,-1.15l0 0c0.87,-0.39 1.73,-0.8 2.59,-1.21 0.86,-0.41 1.71,-0.84 2.55,-1.27l0 0c0.85,-0.44 1.69,-0.88 2.52,-1.33 0.84,-0.45 1.66,-0.92 2.48,-1.39l0 0c0.82,-0.47 1.64,-0.96 2.44,-1.45l0 0c0.81,-0.49 1.61,-0.99 2.41,-1.5 0.8,-0.51 1.59,-1.03 2.37,-1.56 0.78,-0.53 1.56,-1.06 2.33,-1.61 0.77,-0.55 1.53,-1.11 2.29,-1.67l0 0c0.75,-0.56 1.5,-1.14 2.24,-1.72 0.74,-0.58 1.47,-1.18 2.2,-1.77 0.72,-0.6 1.44,-1.21 2.16,-1.83l0 0c0.71,-0.62 1.42,-1.24 2.11,-1.87 0.7,-0.64 1.39,-1.27 2.07,-1.93l0 0c0.68,-0.65 1.35,-1.31 2.02,-1.97 0.66,-0.67 1.32,-1.34 1.97,-2.02l0 0c0.65,-0.68 1.29,-1.37 1.93,-2.07 0.63,-0.69 1.26,-1.4 1.87,-2.11l0 0c0.62,-0.71 1.22,-1.43 1.82,-2.16 0.6,-0.73 1.19,-1.46 1.77,-2.2l0 0c0.58,-0.74 1.15,-1.49 1.72,-2.25 0.57,-0.76 1.12,-1.52 1.67,-2.29 0.55,-0.77 1.09,-1.55 1.61,-2.33l0 0c0.53,-0.78 1.05,-1.58 1.56,-2.37 0.51,-0.8 1.01,-1.6 1.5,-2.41 0.49,-0.81 0.97,-1.63 1.45,-2.45 0.47,-0.82 0.93,-1.65 1.39,-2.48 0.45,-0.83 0.9,-1.68 1.33,-2.52 0.43,-0.85 0.86,-1.7 1.27,-2.55 0.41,-0.86 0.82,-1.73 1.21,-2.59 0.39,-0.87 0.77,-1.75 1.15,-2.63l0 0c0.37,-0.88 0.73,-1.77 1.08,-2.66l0 0c0.35,-0.89 0.69,-1.79 1.02,-2.69 0.33,-0.9 0.65,-1.81 0.96,-2.72 0.31,-0.91 0.6,-1.83 0.89,-2.75 0.29,-0.92 0.57,-1.85 0.83,-2.78 0.26,-0.93 0.52,-1.86 0.76,-2.81 0.24,-0.94 0.47,-1.89 0.69,-2.84 0.22,-0.95 0.43,-1.9 0.62,-2.86 0.2,-0.96 0.38,-1.92 0.55,-2.89 0.18,-0.96 0.33,-1.93 0.48,-2.91 0.15,-0.98 0.29,-1.96 0.41,-2.94 0.12,-0.98 0.24,-1.97 0.33,-2.96 0.1,-0.99 0.19,-1.98 0.27,-2.98 0.08,-1 0.14,-2 0.19,-3 0.05,-1 0.09,-2.01 0.12,-3.02 0.02,-1.01 0.04,-2.02 0.04,-3.04l0 -235.55c0,-1.01 -0.02,-2.03 -0.04,-3.04 -0.02,-1.01 -0.06,-2.02 -0.12,-3.02 -0.05,-1 -0.11,-2.01 -0.19,-3 -0.08,-0.99 -0.17,-1.99 -0.27,-2.98 -0.1,-0.99 -0.21,-1.98 -0.33,-2.96 -0.13,-0.98 -0.26,-1.96 -0.41,-2.94l0 -0c-0.15,-0.97 -0.31,-1.94 -0.48,-2.91 -0.17,-0.97 -0.36,-1.93 -0.55,-2.89l0 -0c-0.2,-0.96 -0.4,-1.91 -0.62,-2.86l0 -0c-0.22,-0.95 -0.45,-1.89 -0.69,-2.83 -0.24,-0.94 -0.5,-1.88 -0.76,-2.81 -0.26,-0.93 -0.54,-1.86 -0.83,-2.78 -0.29,-0.92 -0.58,-1.84 -0.89,-2.75 -0.31,-0.91 -0.63,-1.82 -0.96,-2.72l0 -0c-0.33,-0.9 -0.67,-1.8 -1.02,-2.69l0 -0c-0.35,-0.89 -0.71,-1.78 -1.09,-2.66 -0.37,-0.88 -0.76,-1.75 -1.15,-2.62l0 -0c-0.39,-0.87 -0.8,-1.73 -1.21,-2.59 -0.41,-0.86 -0.84,-1.71 -1.27,-2.56l0 0c-0.44,-0.85 -0.88,-1.69 -1.33,-2.52 -0.45,-0.83 -0.92,-1.66 -1.39,-2.48l0 -0c-0.47,-0.82 -0.96,-1.63 -1.45,-2.44l0 -0c-0.49,-0.81 -0.99,-1.62 -1.5,-2.41 -0.51,-0.8 -1.03,-1.59 -1.56,-2.37 -0.53,-0.78 -1.07,-1.56 -1.62,-2.33 -0.55,-0.77 -1.11,-1.53 -1.67,-2.28l0 -0c-0.56,-0.76 -1.14,-1.5 -1.72,-2.24 -0.58,-0.74 -1.18,-1.48 -1.77,-2.2 -0.6,-0.73 -1.21,-1.45 -1.82,-2.16l0 -0c-0.62,-0.71 -1.25,-1.42 -1.88,-2.11 -0.64,-0.7 -1.27,-1.38 -1.93,-2.07l0 -0c-0.65,-0.68 -1.31,-1.36 -1.97,-2.02 -0.67,-0.67 -1.34,-1.32 -2.02,-1.97l0 0c-0.68,-0.65 -1.38,-1.29 -2.07,-1.93 -0.69,-0.64 -1.4,-1.26 -2.11,-1.88l0 0c-0.71,-0.62 -1.43,-1.23 -2.16,-1.82 -0.73,-0.6 -1.46,-1.19 -2.2,-1.77l0 -0c-0.74,-0.58 -1.49,-1.15 -2.24,-1.72 -0.76,-0.57 -1.52,-1.12 -2.29,-1.67 -0.77,-0.55 -1.54,-1.09 -2.33,-1.62l0 -0c-0.78,-0.53 -1.58,-1.05 -2.37,-1.56 -0.8,-0.51 -1.6,-1.01 -2.41,-1.5 -0.81,-0.49 -1.62,-0.97 -2.45,-1.45 -0.82,-0.47 -1.65,-0.93 -2.49,-1.39 -0.83,-0.45 -1.67,-0.9 -2.52,-1.33 -0.85,-0.43 -1.7,-0.86 -2.56,-1.27 -0.86,-0.41 -1.72,-0.82 -2.59,-1.21 -0.87,-0.39 -1.74,-0.77 -2.63,-1.15l0 -0c-0.88,-0.37 -1.77,-0.73 -2.66,-1.08l0 -0c-0.89,-0.35 -1.79,-0.69 -2.69,-1.02 -0.9,-0.33 -1.81,-0.65 -2.72,-0.96 -0.91,-0.31 -1.83,-0.61 -2.75,-0.89 -0.92,-0.29 -1.85,-0.57 -2.78,-0.83 -0.93,-0.26 -1.86,-0.52 -2.81,-0.76 -0.94,-0.24 -1.89,-0.47 -2.83,-0.69 -0.95,-0.22 -1.9,-0.43 -2.86,-0.62 -0.96,-0.2 -1.92,-0.38 -2.89,-0.55 -0.96,-0.17 -1.94,-0.33 -2.91,-0.48 -0.97,-0.15 -1.95,-0.29 -2.94,-0.41 -0.98,-0.12 -1.97,-0.24 -2.96,-0.34 -0.99,-0.1 -1.98,-0.19 -2.98,-0.27 -0.99,-0.07 -2,-0.14 -3,-0.19 -1,-0.05 -2.01,-0.09 -3.02,-0.11 -1.01,-0.03 -2.02,-0.04 -3.04,-0.04l-314.63 0 -313.5 0c-65.05,0 -117.77,52.73 -117.77,117.77l0 235.55c0,65.05 52.73,117.78 117.77,117.78l196.29 0zm422.43 927.42l0 0zm53.9 -162.26c-0.58,-0.43 -1.16,-0.86 -1.75,-1.27l1.75 1.27z"/>
  <polygon class="fil3" points="1098.74,776.92 1098.74,1673.71 1217.07,1673.71 1217.07,1084.84 1217.07,1060.2 1217.07,776.92 "/>
  <polygon class="fil1" points="1517.84,1127.34 1517.84,1029.56 1674.74,1029.56 1674.74,929.97 1666.75,929.97 1763.05,929.97 1763.05,1127.34 "/>
  <path class="fil4" d="M1799.01 686.71l-26.78 61.84 -10.28 23.75c11.52,10.08 18.84,24.85 18.84,41.32 0,30.31 -24.66,54.96 -54.96,54.96 -30.31,0 -54.96,-24.66 -54.96,-54.96 0,-16.47 7.32,-31.24 18.84,-41.32l-10.28 -23.75 -26.78 -61.84c-43.82,25.37 -73.39,72.74 -73.39,126.91 0,80.81 65.75,146.57 146.57,146.57 80.82,0 146.57,-65.75 146.57,-146.57 0,-54.17 -29.57,-101.54 -73.39,-126.91z"/>
  <polygon class="fil1" points="526.51,1353.8 526.51,1181.83 683.41,1181.83 683.41,1082.24 526.51,1082.24 418.52,1082.24 418.52,1353.8 "/>
  <circle class="fil5" cx="476.66" cy="1131.39" r="73.28"/>
  <path class="fil5" d="M403.48 1552.67l26.78 -61.83 10.28 -23.75c-11.52,-10.08 -18.84,-24.85 -18.84,-41.32 0,-30.31 24.65,-54.96 54.96,-54.96 30.31,0 54.96,24.66 54.96,54.96 0,16.47 -7.32,31.24 -18.84,41.32l10.28 23.75 26.78 61.83c43.82,-25.37 73.39,-72.73 73.39,-126.9 0,-80.82 -65.75,-146.57 -146.57,-146.57 -80.82,0 -146.57,65.75 -146.57,146.57 0,54.17 29.57,101.54 73.39,126.9z"/>
  <path class="fil5" d="M1413.37 847.92l-628.13 0c-65.05,0 -117.77,-52.73 -117.77,-117.77l0 -235.55c0,-65.05 52.73,-117.77 117.77,-117.77l628.13 0c65.05,0 117.77,52.73 117.77,117.77l0 235.55c0,65.05 -52.73,117.77 -117.77,117.77z"/>
  <path class="fil4" d="M1413.37 376.83l-314.63 0 0 471.1 314.63 0c65.04,0 117.77,-52.73 117.77,-117.77l0 -235.55c0,-65.04 -52.73,-117.77 -117.77,-117.77z"/>
  <path class="fil5" d="M1413.37 1477.68l-628.13 0c-65.05,0 -117.77,-52.73 -117.77,-117.77l0 -274.81c0,-65.05 52.73,-117.77 117.77,-117.77l628.13 0c65.05,0 117.77,52.73 117.77,117.77l0 274.81c0,65.05 -52.73,117.77 -117.77,117.77z"/>
  <path class="fil4" d="M1413.37 967.32l-314.63 0 0 510.35 314.63 0c65.04,0 117.77,-52.73 117.77,-117.77l0 -274.81c0,-65.04 -52.73,-117.77 -117.77,-117.77z"/>
  <path class="fil5" d="M1403.96 1775.35l-605 0c-49.75,0 -90.08,-40.33 -90.08,-90.08 0,-49.75 40.33,-90.08 90.08,-90.08l605 0c49.75,0 90.08,40.33 90.08,90.08 -0,49.75 -40.33,90.08 -90.08,90.08l0 -0z"/>
  <path class="fil4" d="M1403.96 1595.19l-305.22 0 0 180.16 305.22 0c49.75,0 90.08,-40.33 90.08,-90.08 -0,-49.75 -40.33,-90.08 -90.08,-90.08l0 0z"/>
  <circle class="fil1" cx="1295.59" cy="612.38" r="107.96"/>
  <path class="fil6" d="M1295.6 769.41c-86.59,0 -157.03,-70.44 -157.03,-157.03 0,-86.58 70.45,-157.03 157.03,-157.03 86.59,0 157.03,70.45 157.03,157.03 0,86.59 -70.45,157.03 -157.03,157.03zm0 -215.92c-32.47,0 -58.89,26.42 -58.89,58.89 0,32.47 26.42,58.89 58.89,58.89 32.47,0 58.89,-26.42 58.89,-58.89 0,-32.47 -26.42,-58.89 -58.89,-58.89z"/>
  <circle class="fil1" cx="903.01" cy="612.38" r="107.96"/>
  <path class="fil7" d="M903.01 769.41c-86.59,0 -157.03,-70.44 -157.03,-157.03 0,-86.58 70.45,-157.03 157.03,-157.03 86.59,0 157.03,70.45 157.03,157.03 0,86.59 -70.45,157.03 -157.03,157.03zm0 -215.92c-32.47,0 -58.89,26.42 -58.89,58.89 0,32.47 26.42,58.89 58.89,58.89 32.47,0 58.89,-26.42 58.89,-58.89 0,-32.47 -26.42,-58.89 -58.89,-58.89z"/>
 </g>
</svg>