<?xml version="1.0" encoding="UTF-8"?>
<!DOCTYPE svg PUBLIC "-//W3C//DTD SVG 1.1//EN" "http://www.w3.org/Graphics/SVG/1.1/DTD/svg11.dtd">
<!-- Creator: CorelDRAW 2018 (64-Bit) -->
<svg xmlns="http://www.w3.org/2000/svg" xml:space="preserve" width="71.638mm" height="71.638mm" version="1.1" style="shape-rendering:geometricPrecision; text-rendering:geometricPrecision; image-rendering:optimizeQuality; fill-rule:evenodd; clip-rule:evenodd" viewBox="0 0 7715.14 7715.14" xmlns:xlink="http://www.w3.org/1999/xlink">
 <defs>
  <style type="text/css">
   <![CDATA[
    .fil6 {fill:#66CCBB}
    .fil4 {fill:#813F8E}
    .fil2 {fill:#97E9D7}
    .fil5 {fill:#AB33A3}
    .fil1 {fill:#D25922}
    .fil0 {fill:#E06E37}
    .fil7 {fill:#EDAC1A}
    .fil8 {fill:#F8D500}
    .fil3 {fill:#FEE500}
   ]]>
  </style>
 </defs>
 <g id="Слой_x0020_1">
  <metadata id="CorelCorpID_0Corel-Layer"/>
  <circle class="fil0" cx="3857.57" cy="3857.57" r="3857.57"/>
  <path class="fil1" d="M6295.49 5480.72c-357.71,619.44 -1563.43,284.88 -2437.93,-109.33 -221.9,-99.37 -420.68,-202.02 -579.66,-294.79 -498.83,-288.51 -934.99,-615.18 -1276.26,-955.28 -131.96,46.31 -282.56,37.23 -413.01,-38.02l-0.34 0c-237.08,-137.15 -318.6,-441.69 -181.62,-678.78 9.58,-16.61 20.01,-32.41 31.13,-47.46 -147.74,-335.68 -94.09,-561.22 -18.11,-691.87 317.96,-549.86 1397.8,-371 2437.89,106.01 195.47,89.42 390.89,188.79 579.66,298.08 788.38,453.81 2308.76,1629.7 1858.27,2411.44l0 0zm-4033.86 -1569.86c314.03,308.65 727.15,616.86 1181.88,880.86 139.14,79.53 278.28,152.38 414.05,218.62 1063.3,520.06 1977.52,602.87 2153.06,304.76 301.43,-526.71 -1136.14,-1609.83 -1739.01,-1960.95 -139.09,-79.49 -278.22,-152.38 -414.05,-218.62 -1063.28,-520.02 -1980.79,-602.83 -2153.05,-304.72 -44.02,80.31 -39.45,197.07 15.34,339.21 119.78,-29.02 250.49,-13.72 365.64,52.66 237.51,137.38 318.99,440.7 181.79,678.7 -1.84,3.19 -3.75,6.34 -5.64,9.48z"/>
  <path class="fil2" d="M4470.35 5699.36c139.14,-457.09 215.32,-1033.48 215.32,-1626.4 0,-1421.01 -437.21,-2495.33 -828.1,-2495.33 -390.85,0 -828.1,1074.32 -828.1,2495.33 0,1421.01 437.25,2495.33 828.1,2495.33 115.93,0 248.42,-102.69 367.69,-291.47l278.22 175.53c-231.86,371.01 -480.29,447.18 -645.91,447.18 -751.93,0 -1159.34,-1461.85 -1159.34,-2826.57 0,-1364.73 407.4,-2826.57 1159.34,-2826.57 751.92,0 1159.34,1461.85 1159.34,2826.57 0,632.67 -79.49,1228.9 -231.87,1722.44l-314.69 -96.04zm0 0z"/>
  <path class="fil3" d="M4437.23 5076.64c-158.98,92.74 -361.04,195.43 -579.66,294.8 -877.79,394.17 -2083.49,725.41 -2437.93,109.29 -450.45,-778.36 1066.6,-1954.31 1858.25,-2411.4 195.47,-112.61 387.57,-211.98 579.67,-301.43 354.44,-162.3 702.24,-284.88 1026.84,-361.04l76.21 324.6c-341.2,76.16 -722.12,218.62 -1103.05,404.08 -139.1,66.25 -278.23,139.14 -414.05,218.63 -645.92,374.32 -2030.48,1454.12 -1739.01,1960.95 175.59,298.11 1089.77,215.31 2153.06,-304.72 135.82,-66.25 274.95,-139.14 414.05,-218.62 645.91,-374.33 2030.51,-1454.14 1739,-1960.95 -59.61,-102.7 -215.31,-162.3 -437.21,-172.27l13.25 -331.23c433.93,19.88 626.03,195.47 708.85,337.88 450.49,778.42 -1066.61,1954.31 -1858.27,2411.45l0 0zm0 0z"/>
  <path class="fil1" d="M4437.23 5076.64c-158.98,92.74 -361.04,195.43 -579.66,294.8 -199.14,89.42 -415.17,175.56 -634.29,248.18 163.56,584.55 406.77,948.68 634.29,948.68 90.18,0 190.36,-62.14 286.57,-178.6 -75.33,-89.6 -120.95,-205.34 -120.95,-329.29 0,-270.24 216.87,-490.76 485.7,-496.72 49.27,-186.12 88.85,-388.73 117.96,-601.83 -66.51,41.98 -130.14,80.44 -189.61,114.78l0 0zm-1531.98 637.51c-640.34,167.06 -1250.41,175.43 -1485.62,-233.42 -358.95,-620.27 531.51,-1493.01 1308.64,-2053.25 106.75,-1143.16 495.7,-2181.08 1129.29,-2181.08 418.09,0 729.6,452.05 923.85,1087.96 38.64,-105.59 112.99,-198.7 217.66,-259.17 237.27,-136.81 541.15,-56.33 678.7,182.14 15.23,26.34 27.77,53.53 37.7,81.22 344.21,45.2 505.89,199.21 580.01,326.65 358.77,619.92 -530.39,1491.95 -1307.21,2052.24 -30.89,339.46 -86.54,659.83 -165.77,949.07 118.11,90.92 194.37,233.66 194.37,393.9 0,273.96 -222.84,507.9 -496.86,507.9 -30.74,0 -60.84,-2.96 -90.04,-8.58 -209.64,278.78 -424.2,339.82 -572.43,339.82 -439.15,0 -760.72,-498.71 -952.31,-1185.39zm183.95 -2530.62c66.18,-41.74 129.49,-80.02 188.69,-114.2 195.47,-112.61 387.57,-211.98 579.67,-301.43 214.36,-98.17 426.29,-181.78 632.13,-249.39 -163.54,-580.01 -405.61,-940.87 -632.13,-940.87 -303.83,0 -635.66,649.28 -768.37,1605.89zm1580.98 1350.53c10.24,-151.32 15.49,-305.64 15.49,-461.09 0,-453.55 -44.59,-871.7 -117.95,-1230.96 -230.09,76.88 -470.12,176.65 -710.15,293.52 -139.1,66.25 -278.23,139.14 -414.05,218.63 -114.16,66.16 -251.42,154.4 -398.39,257.58 -10.21,148.76 -15.66,302.83 -15.66,461.23 0,453.15 44.51,870.99 117.77,1230.02 223.77,-74.36 463.01,-171.64 710.33,-292.59 135.82,-66.25 274.95,-139.14 414.05,-218.62 114.2,-66.18 251.52,-154.5 398.56,-257.72zm-1841.81 862.26c-86.03,-414.58 -130.14,-874.22 -130.14,-1323.35 0,-68.15 1.07,-136.54 3.09,-204.98 -601.39,475.25 -1197.87,1097.5 -996.81,1447.12 114.61,194.57 543.89,226.83 1123.86,81.2zm2082.09 -2525.63c70.42,381.99 106.45,796.43 106.45,1202.28 0,68.71 -0.94,136.99 -2.81,204.75 601.3,-475.22 1197.58,-1097.34 996.52,-1446.9 -45.93,-79.15 -148.95,-132.68 -295.35,-157.65 -38.2,106.77 -112.99,201.21 -219.32,262.63 -192.78,111.19 -429.77,78.3 -585.49,-65.11z"/>
  <path class="fil4" d="M6295.49 5265.33c-357.71,619.44 -1563.43,284.88 -2437.93,-109.33 -221.9,-99.37 -420.68,-202.02 -579.66,-294.79 -549.82,-318.01 -1023.52,-682.36 -1377.92,-1059.97l245.11 -225.23c324.6,347.79 785.01,702.24 1298.43,1000.31 139.14,79.53 278.28,152.38 414.05,218.62 1063.3,520.06 1977.52,602.87 2153.06,304.76 301.43,-526.71 -1136.14,-1609.83 -1739.01,-1960.95 -139.09,-79.49 -278.22,-152.38 -414.05,-218.62 -1063.28,-520.02 -1980.79,-602.83 -2153.05,-304.72 -56.28,102.69 -33.13,265 72.89,463.74l-294.8 155.7c-202.06,-387.57 -145.73,-642.64 -62.93,-785.05 317.96,-549.86 1397.8,-371 2437.89,106.01 195.47,89.42 390.89,188.79 579.66,298.08 788.38,453.81 2308.76,1629.7 1858.27,2411.44l0 0zm0 0z"/>
  <path class="fil5" d="M6295.49 5265.33c-357.71,619.44 -1563.43,284.88 -2437.93,-109.33l0 -361.04c1063.3,520.06 1977.52,602.87 2153.06,304.76 301.43,-526.71 -1136.14,-1609.83 -1739.01,-1960.95 -139.09,-79.49 -278.22,-152.38 -414.05,-218.62l0 -364.33c195.47,89.41 390.89,188.78 579.67,298.07 788.37,453.82 2308.75,1629.71 1858.25,2411.45l0 0zm0 0z"/>
  <path class="fil4" d="M1588.62 3867.92l-0.34 0c-237.08,-137.15 -318.6,-441.69 -181.62,-678.78 137.64,-238.34 441.31,-318.78 678.83,-181.85 237.51,137.38 318.99,440.7 181.79,678.7 -136.9,236.69 -441.18,318.9 -678.66,181.92zm0 0z"/>
  <path class="fil2" d="M4470.35 5483.97c139.14,-457.09 215.32,-1033.48 215.32,-1626.4 0,-1421.01 -437.21,-2495.33 -828.1,-2495.33 -390.85,0 -828.1,1074.32 -828.1,2495.33 0,1421.01 437.25,2495.33 828.1,2495.33 115.93,0 248.42,-102.69 367.69,-291.47l278.22 175.53c-231.86,371.01 -480.29,447.18 -645.91,447.18 -751.93,0 -1159.34,-1461.85 -1159.34,-2826.57 0,-1364.73 407.4,-2826.57 1159.34,-2826.57 751.92,0 1159.34,1461.85 1159.34,2826.57 0,632.67 -79.49,1228.9 -231.87,1722.44l-314.69 -96.04zm0 0z"/>
  <path class="fil2" d="M4470.35 5483.97c139.14,-457.09 215.32,-1033.48 215.32,-1626.4 0,-1421.01 -437.21,-2495.33 -828.1,-2495.33 -390.85,0 -828.1,1074.32 -828.1,2495.33 0,1421.01 437.25,2495.33 828.1,2495.33 115.93,0 248.42,-102.69 367.69,-291.47l278.22 175.53c-231.86,371.01 -480.29,447.18 -645.91,447.18 -751.93,0 -1159.34,-1461.85 -1159.34,-2826.57 0,-1364.73 407.4,-2826.57 1159.34,-2826.57 751.92,0 1159.34,1461.85 1159.34,2826.57 0,632.67 -79.49,1228.9 -231.87,1722.44l-314.69 -96.04zm0 0z"/>
  <path class="fil6" d="M4225.24 6061.43l278.23 175.53c-231.87,371.01 -480.29,447.18 -645.92,447.18l0 -331.24c115.93,0 248.43,-102.69 367.69,-291.47zm0 0z"/>
  <path class="fil6" d="M5016.9 3857.57c0,632.67 -79.49,1228.9 -231.86,1722.44l-314.69 -96.04c139.14,-457.09 215.32,-1033.48 215.32,-1626.4 0,-1421.01 -437.21,-2495.33 -828.1,-2495.33l0 -331.24c751.92,0 1159.34,1461.85 1159.34,2826.57l-0.01 0zm0 0z"/>
  <path class="fil6" d="M4520.04 6352.9c-273.96,0 -496.86,-233.94 -496.86,-507.9 0,-273.97 222.9,-496.86 496.86,-496.86 274.01,0 496.86,222.89 496.86,496.86 0,273.96 -222.84,507.9 -496.86,507.9zm0 0z"/>
  <path class="fil3" d="M4437.23 4861.24c-158.98,92.74 -361.04,195.43 -579.66,294.8 -877.79,394.17 -2083.49,725.41 -2437.93,109.29 -450.45,-778.36 1066.6,-1954.31 1858.25,-2411.4 195.47,-112.61 387.57,-211.98 579.67,-301.43 354.44,-162.3 702.24,-284.88 1026.84,-361.04l76.21 324.6c-341.2,76.16 -722.12,218.62 -1103.05,404.08 -139.1,66.25 -278.23,139.14 -414.05,218.63 -645.92,374.32 -2030.48,1454.12 -1739.01,1960.95 175.59,298.11 1089.77,215.31 2153.06,-304.72 135.82,-66.25 274.95,-139.14 414.05,-218.62 645.91,-374.33 2030.51,-1454.14 1739,-1960.95 -59.61,-102.7 -215.31,-162.3 -437.21,-172.27l13.25 -331.23c433.93,19.88 626.03,195.47 708.85,337.88 450.49,778.42 -1066.61,1954.31 -1858.27,2411.45l0 0zm0 0z"/>
  <path class="fil3" d="M4437.23 4861.24c-158.98,92.74 -361.04,195.43 -579.66,294.8 -877.79,394.17 -2083.49,725.41 -2437.93,109.29 -450.45,-778.36 1066.6,-1954.31 1858.25,-2411.4 195.47,-112.61 387.57,-211.98 579.67,-301.43 354.44,-162.3 702.24,-284.88 1026.84,-361.04l76.21 324.6c-341.2,76.16 -722.12,218.62 -1103.05,404.08 -139.1,66.25 -278.23,139.14 -414.05,218.63 -645.92,374.32 -2030.48,1454.12 -1739.01,1960.95 175.59,298.11 1089.77,215.31 2153.06,-304.72 135.82,-66.25 274.95,-139.14 414.05,-218.62 645.91,-374.33 2030.51,-1454.14 1739,-1960.95 -59.61,-102.7 -215.31,-162.3 -437.21,-172.27l13.25 -331.23c433.93,19.88 626.03,195.47 708.85,337.88 450.49,778.42 -1066.61,1954.31 -1858.27,2411.45l0 0zm0 0z"/>
  <path class="fil7" d="M4960.62 2516.05c-341.2,76.16 -722.12,218.62 -1103.05,404.09l0 -367.64c354.44,-162.34 702.24,-284.88 1026.84,-361.08l76.21 324.64zm0 0z"/>
  <path class="fil7" d="M4960.62 2516.05c-341.2,76.16 -722.12,218.62 -1103.05,404.09l0 -367.64c354.44,-162.34 702.24,-284.88 1026.84,-361.08l76.21 324.64zm0 0z"/>
  <path class="fil7" d="M4437.23 4861.24c-158.98,92.74 -361.04,195.43 -579.66,294.8l0 -361.04c135.82,-66.25 274.95,-139.14 414.05,-218.62 645.91,-374.33 2030.51,-1454.14 1739,-1960.95 -59.61,-102.7 -215.31,-162.3 -437.21,-172.27l13.25 -331.23c433.93,19.88 626.03,195.47 708.85,337.88 450.49,778.42 -1066.61,1954.31 -1858.27,2411.45l0 0zm0 0z"/>
  <path class="fil7" d="M4817.16 2538.78c-136.85,-237.6 -55.16,-542.01 181.92,-678.99 237.27,-136.81 541.15,-56.33 678.7,182.14 136.81,236.61 56.76,540.68 -181.83,678.49 -237.27,136.85 -541.54,55.46 -678.79,-181.63zm0 0z"/>
  <path class="fil8" d="M4354.43 3857.57c0,274.96 -221.91,496.86 -496.87,496.86 -274.91,0 -496.86,-221.9 -496.86,-496.86 0,-274.96 221.95,-496.86 496.86,-496.86 274.96,0 496.87,221.9 496.87,496.86zm0 0z"/>
  <path class="fil8" d="M4354.43 3857.57c0,274.96 -221.91,496.86 -496.87,496.86 -274.91,0 -496.86,-221.9 -496.86,-496.86 0,-274.96 221.95,-496.86 496.86,-496.86 274.96,0 496.87,221.9 496.87,496.86zm0 0z"/>
  <path class="fil7" d="M3857.56 4354.43l0 -993.71c274.96,0 496.87,221.9 496.87,496.86 0,274.96 -221.91,496.86 -496.87,496.86zm0 0z"/>
  <path class="fil7" d="M3857.56 4354.43l0 -993.71c274.96,0 496.87,221.9 496.87,496.86 0,274.96 -221.91,496.86 -496.87,496.86zm0 0z"/>
 </g>
</svg>